<svg width="87" height="45" viewBox="0 0 87 45" fill="none" xmlns="http://www.w3.org/2000/svg">
<path d="M51.8875 44.569C53.6365 43.1934 51.0358 41.35 51.0358 41.35C51.0358 41.35 50.0926 40.6108 49.5523 40.1523C49.012 39.6938 42.4828 40.7512 42.4828 40.7512L41.5304 42.0051C41.5304 42.0051 43.6824 42.2109 45.6512 42.3606C47.0523 42.4636 48.4534 42.5478 49.4699 43.6145C49.7538 43.9139 49.9919 44.3724 50.3032 44.6251C50.6421 44.8965 51.3655 44.9807 51.8875 44.569Z" fill="white"/>
<path d="M39.1952 36.8212C39.1952 36.8212 41.7684 36.8118 43.6732 36.9802C46.0633 37.1955 47.7116 37.6352 47.7116 37.6352C47.7116 37.6352 48.5358 37.8973 48.5358 38.0657C48.5358 38.2435 47.4003 38.5616 47.4003 38.5616C47.4003 38.5616 44.6897 39.1886 42.7483 39.1511C41.045 39.1231 40.0743 39.1511 39.3875 39.1511C38.7007 39.1511 38.1146 40.1056 38.1146 40.667C38.1146 41.2284 38.6 42.1642 39.4791 42.1642C40.3582 42.1642 43.3344 42.1642 43.3344 42.1642C43.3344 42.1642 46.4296 41.8835 47.9955 41.4437C49.5614 41.0039 52.446 40.2272 52.446 38.2341C52.446 36.241 50.4497 35.5486 49.6988 35.3334C48.9479 35.1181 42.4461 34.0421 39.4516 34.0421C37.7483 34.0514 38.1238 36.8212 39.1952 36.8212Z" fill="white"/>
<path d="M37.0799 30.0371C37.0799 30.0371 37.0799 28.0721 36.915 27.4077C36.7502 26.7434 35.1934 23.721 33.7282 21.0354C32.263 18.3499 30.8803 14.1578 32.6293 8.97389C34.5799 3.17238 40.404 0.421338 43.6457 0.103191C46.6036 -0.186885 50.175 0.252907 53.2519 2.50801C56.4295 4.83797 58.8105 8.85225 58.8105 13.3905C58.8105 18.0224 57.7116 19.2856 55.5046 23.59C53.6548 27.1925 53.6457 27.6042 53.6274 28.437C53.609 29.2698 53.5724 30.7951 53.5724 30.7951C53.5266 32.732 52.2629 33.8455 52.2629 33.8455C52.2629 33.8455 51.0633 35.1462 48.7464 35.6328C45.8344 36.241 44.3783 36.6995 41.9241 36.6621C39.47 36.6247 39.9828 36.6621 39.1311 36.6621C38.2795 36.6621 38.1879 35.6702 38.1879 35.1649C38.1879 34.6596 38.6366 33.7613 39.3417 33.7333C40.0011 33.7145 43.0414 33.518 44.4241 33.2935C45.8069 33.0689 48.8838 32.7507 49.9461 31.8805C50.9992 31.0103 50.5779 29.1201 50.6146 28.306C50.6512 27.4826 50.7428 26.5469 51.7043 24.4321C52.6658 22.3174 53.9937 20.2868 53.9937 20.2868C53.9937 20.2868 55.5687 17.5077 55.8251 15.2152C56.1457 12.3051 55.4497 10.1529 54.6347 8.71189C53.7922 7.21472 52.2354 5.53977 51.2281 4.84733C49.5615 3.69639 47.7849 3.05073 45.3124 3.05073C42.8399 3.05073 40.3857 3.93032 38.1971 5.87663C36.9608 6.97143 35.6605 8.88968 35.0835 11.2103C34.5799 13.2315 34.8271 16.6281 35.7703 18.3405C36.7136 20.0529 38.252 23.0753 38.252 23.0753C38.252 23.0753 38.8564 24.1888 39.1403 24.9093C39.3509 25.4427 39.8912 26.4814 39.9278 27.4545C39.9828 28.7739 39.9919 29.719 39.9919 30.374C39.9919 31.029 39.4242 31.5343 38.6 31.5343C37.7758 31.5343 37.0799 31.0196 37.0799 30.0371Z" fill="white"/>
<path d="M3.83838 35.2866C4.64424 35.2866 5.38599 35.4924 6.08196 35.9041C6.77792 36.3159 7.32737 36.8773 7.73945 37.5978C8.15154 38.3183 8.37132 39.1043 8.38963 39.9465C8.40795 40.3769 8.37132 40.798 8.27058 41.2097C8.17901 41.6214 8.03249 42.0144 7.83103 42.3887C7.63872 42.763 7.40063 43.0999 7.11675 43.4087C6.84202 43.7175 6.52151 43.9795 6.18269 44.1947C5.83471 44.4099 5.47757 44.569 5.09295 44.6813C4.70834 44.7936 4.31457 44.8497 3.91164 44.8497H1.60397C1.36587 44.8497 1.16441 44.7561 0.990419 44.5783C0.816428 44.4005 0.724854 44.176 0.724854 43.914V36.2223C0.724854 35.9696 0.816428 35.7544 0.990419 35.5673C1.16441 35.3801 1.36587 35.2866 1.60397 35.2866H3.83838ZM2.46477 42.997H3.9208C4.68087 42.997 5.32189 42.7069 5.85302 42.1361C6.38415 41.5653 6.64972 40.8729 6.64972 40.0681C6.64972 39.2634 6.38415 38.571 5.85302 38.0002C5.32189 37.4294 4.67171 37.1393 3.9208 37.1393H2.46477V42.997Z" fill="white"/>
<path d="M9.69916 35.5579C9.87315 35.3801 10.0746 35.2866 10.3127 35.2866C10.5508 35.2866 10.7614 35.3801 10.9263 35.5579C11.1002 35.7357 11.1827 35.9603 11.1827 36.2223V43.914C11.1827 44.176 11.1002 44.3912 10.9263 44.5783C10.7523 44.7655 10.5508 44.8497 10.3127 44.8497C10.0746 44.8497 9.86399 44.7561 9.69916 44.5783C9.52517 44.4005 9.44275 44.176 9.44275 43.914V36.2223C9.44275 35.9603 9.52517 35.7451 9.69916 35.5579Z" fill="white"/>
<path d="M17.4097 42.997C17.6478 42.997 17.8493 43.0905 18.0141 43.2683C18.1789 43.4461 18.2705 43.6707 18.2705 43.9233C18.2705 44.176 18.1881 44.4005 18.0141 44.5783C17.8401 44.7561 17.6386 44.8497 17.4097 44.8497H13.5453C13.3072 44.8497 13.1057 44.7561 12.9317 44.5783C12.7577 44.4005 12.6661 44.176 12.6661 43.914V36.2223C12.6661 35.9696 12.7577 35.7544 12.9317 35.5673C13.1057 35.3801 13.3072 35.2866 13.5453 35.2866H17.4005C17.6386 35.2866 17.8401 35.3801 18.0049 35.5579C18.1789 35.7357 18.2613 35.9603 18.2613 36.2129C18.2613 36.4656 18.1789 36.6902 18.0049 36.8679C17.8309 37.0457 17.6295 37.1393 17.4005 37.1393H14.4061V39.1324H16.2742C16.5214 39.1324 16.7229 39.226 16.8969 39.4038C17.0709 39.5816 17.1533 39.8061 17.1533 40.0588C17.1533 40.3114 17.0709 40.536 16.8969 40.7138C16.7229 40.8916 16.5214 40.9851 16.2742 40.9851H14.4061V42.9782H17.4097V42.997Z" fill="white"/>
<path d="M25.9903 39.1418C26.2284 39.1418 26.4298 39.2353 26.5947 39.4131C26.7687 39.5909 26.8511 39.8155 26.8511 40.0588V42.7162C26.8511 42.9689 26.7687 43.1841 26.613 43.3619C26.2009 43.8391 25.7156 44.204 25.157 44.466C24.5983 44.728 24.0031 44.859 23.3987 44.859H23.2247C22.428 44.859 21.6954 44.6532 21.0178 44.2321C20.3401 43.811 19.809 43.2402 19.4152 42.5197C19.0215 41.7992 18.8292 41.0132 18.8292 40.1711V39.9933C18.8292 39.1418 19.0215 38.3651 19.4152 37.6446C19.809 36.9241 20.3401 36.3533 21.0178 35.9322C21.6954 35.5111 22.428 35.3053 23.2247 35.3053H23.4079C24.2778 35.3053 25.0837 35.5673 25.8254 36.0913C26.0544 36.2597 26.1734 36.4936 26.2009 36.7931C26.2192 37.0925 26.1276 37.3452 25.917 37.551C25.7705 37.6914 25.5965 37.7662 25.395 37.7849C25.1936 37.8037 25.0104 37.7569 24.8456 37.6352C24.3969 37.3264 23.9207 37.1767 23.4079 37.1767H23.2247C22.4921 37.1767 21.8694 37.4574 21.3475 38.0095C20.8255 38.5616 20.5691 39.2353 20.5691 40.012V40.1898C20.5691 40.9758 20.8255 41.6401 21.3475 42.1922C21.8694 42.7443 22.4921 43.025 23.2247 43.025H23.4079C24.0489 43.025 24.6167 42.8004 25.1112 42.3513V41.0226H24.2046C23.9573 41.0226 23.7559 40.929 23.5819 40.7512C23.4079 40.5734 23.3255 40.3488 23.3255 40.0962C23.3255 39.8435 23.4079 39.619 23.5819 39.4412C23.7559 39.2634 23.9573 39.1698 24.2046 39.1698H25.9903V39.1418Z" fill="white"/>
<path d="M29.9371 35.9322C30.6239 35.5018 31.3656 35.2866 32.1806 35.2866C32.9956 35.2866 33.7374 35.5018 34.4334 35.9322C35.1202 36.3626 35.6696 36.9428 36.0634 37.6727C36.4571 38.4025 36.6586 39.1979 36.6586 40.0681C36.6586 40.9384 36.4571 41.7337 36.0634 42.4729C35.6696 43.2122 35.1202 43.7923 34.4334 44.2134C33.7465 44.6345 32.9956 44.8497 32.1806 44.8497C31.3656 44.8497 30.6239 44.6345 29.9371 44.2134C29.2502 43.7923 28.71 43.2122 28.307 42.4729C27.9041 41.7337 27.7026 40.9384 27.7026 40.0681C27.7026 39.1979 27.9041 38.4025 28.307 37.6727C28.71 36.9334 29.2502 36.3533 29.9371 35.9322ZM30.2484 42.1267C30.7887 42.6975 31.4297 42.9782 32.1806 42.9782C32.9315 42.9782 33.5817 42.6975 34.1128 42.1267C34.644 41.5559 34.9095 40.8729 34.9095 40.0681C34.9095 39.2634 34.644 38.571 34.1128 38.0002C33.5817 37.4294 32.9407 37.1393 32.1806 37.1393C31.4297 37.1393 30.7795 37.4294 30.2484 38.0002C29.7081 38.571 29.4426 39.2634 29.4426 40.0681C29.4426 40.8729 29.7081 41.5653 30.2484 42.1267Z" fill="white"/>
<path d="M54.5522 35.5579C54.7262 35.3801 54.9276 35.2866 55.1657 35.2866C55.4038 35.2866 55.6144 35.3801 55.7793 35.5579C55.9533 35.7357 56.0357 35.9603 56.0357 36.2223V43.914C56.0357 44.176 55.9533 44.3912 55.7793 44.5783C55.6053 44.7655 55.4038 44.8497 55.1657 44.8497C54.9276 44.8497 54.717 44.7561 54.5522 44.5783C54.3782 44.4005 54.2958 44.176 54.2958 43.914V36.2223C54.2958 35.9603 54.3782 35.7451 54.5522 35.5579Z" fill="white"/>
<path d="M63.728 35.2772C64.0211 35.2772 64.2592 35.4082 64.4332 35.6609C64.6071 35.9135 64.6438 36.1942 64.5522 36.503L62.1346 44.2134C62.0705 44.4099 61.9698 44.569 61.8141 44.6813C61.6584 44.7936 61.4936 44.8591 61.3013 44.8591H60.7244C60.5412 44.8591 60.3672 44.8029 60.2116 44.6813C60.0559 44.569 59.946 44.4099 59.8819 44.2134L57.4735 36.503C57.3819 36.1942 57.4277 35.9135 57.6017 35.6609C57.7757 35.4082 58.0138 35.2772 58.3068 35.2772C58.49 35.2772 58.6548 35.3334 58.8105 35.455C58.9662 35.5673 59.0669 35.7264 59.131 35.9229L60.9991 41.9302L62.8947 35.9229C62.9588 35.7264 63.0595 35.5673 63.2061 35.455C63.3709 35.3334 63.5357 35.2772 63.728 35.2772Z" fill="white"/>
<path d="M70.6418 42.997C70.8799 42.997 71.0814 43.0905 71.2462 43.2683C71.411 43.4461 71.5026 43.6707 71.5026 43.9233C71.5026 44.176 71.4202 44.4005 71.2462 44.5783C71.0722 44.7561 70.8707 44.8497 70.6418 44.8497H66.7865C66.5484 44.8497 66.347 44.7561 66.173 44.5783C65.999 44.4005 65.9074 44.176 65.9074 43.914V36.2223C65.9074 35.9696 65.999 35.7544 66.173 35.5673C66.347 35.3801 66.5484 35.2866 66.7865 35.2866H70.6418C70.8799 35.2866 71.0814 35.3801 71.2462 35.5579C71.4202 35.7357 71.5026 35.9603 71.5026 36.2129C71.5026 36.4656 71.4202 36.6902 71.2462 36.8679C71.0722 37.0457 70.8707 37.1393 70.6418 37.1393H67.6473V39.1324H69.5154C69.7627 39.1324 69.9642 39.226 70.1381 39.4038C70.3121 39.5816 70.3946 39.8061 70.3946 40.0588C70.3946 40.3114 70.3121 40.536 70.1381 40.7138C69.9642 40.8916 69.7627 40.9851 69.5154 40.9851H67.6473V42.9782H70.6418V42.997Z" fill="white"/>
<path d="M86.9514 43.6239C87.043 43.9327 87.0063 44.2134 86.8323 44.466C86.7499 44.5877 86.6492 44.6813 86.521 44.7561C86.3928 44.8216 86.2646 44.8591 86.1181 44.8591C85.9349 44.8591 85.7701 44.8029 85.6144 44.6813C85.4587 44.569 85.358 44.4099 85.2939 44.2321L85.1199 43.6707H81.7042L81.5302 44.2321C81.4478 44.4754 81.3012 44.6532 81.0906 44.7655C80.88 44.8778 80.6602 44.8871 80.4313 44.8029C80.2024 44.7187 80.0375 44.5596 79.9276 44.335C79.8177 44.1105 79.7994 43.8765 79.8727 43.6333L82.3086 35.9135C82.3727 35.7264 82.4734 35.5766 82.6199 35.4643C82.7664 35.3521 82.9404 35.2866 83.1327 35.2866H83.7097C83.8928 35.2866 84.0576 35.3427 84.2133 35.4643C84.369 35.5766 84.4697 35.7357 84.5338 35.9322L86.9514 43.6239ZM82.3086 41.7899H84.543L83.4349 38.2154L82.3086 41.7899Z" fill="white"/>
<path d="M78.6639 40.5547C79.0118 39.9839 79.1767 39.357 79.1767 38.6739C79.1675 37.7382 78.847 36.9335 78.206 36.2691C77.565 35.6047 76.7957 35.2772 75.9075 35.2772H73.6822C73.435 35.2772 73.2335 35.3708 73.0595 35.5486C72.8855 35.7264 72.8031 35.9509 72.8031 36.2129C72.8031 36.7182 73.206 37.13 73.7005 37.13H74.543H75.532H75.9716C76.2371 37.13 76.4752 37.1955 76.7042 37.3358C76.9331 37.4762 77.1071 37.6633 77.2445 37.8973C77.3818 38.1312 77.4368 38.3932 77.4368 38.6833C77.4368 39.1137 77.2902 39.4786 77.0064 39.7781C76.7225 40.0775 76.3745 40.2272 75.9716 40.2272H75.532H74.543H73.7097C73.206 40.2272 72.8031 40.6389 72.8031 41.1536C72.8031 41.6682 73.2152 42.0893 73.7188 42.0893H74.543H74.6712H75.2848L76.9423 44.4661C77.1163 44.7094 77.3544 44.831 77.6474 44.831C77.8031 44.831 77.9587 44.7842 78.0961 44.6906C78.2426 44.5971 78.3434 44.4754 78.4166 44.3164C78.5814 43.9701 78.554 43.6426 78.3342 43.3432L77.2445 41.8086C77.858 41.556 78.3159 41.1349 78.6639 40.5547Z" fill="white"/>
</svg>
