<?xml version="1.0" standalone="no"?>
<svg xmlns="http://www.w3.org/2000/svg" width="500" height="500"><defs><clipPath id="clip-path-dot-color"><circle cx="29.5" cy="117.5" r="5.5" transform="rotate(0,29.5,117.5)"/><path d="M 24 145v 11h 11v -5.5a 5.5 5.5, 0, 0, 0, -5.5 -5.5" transform="rotate(-90,29.5,150.5)"/><rect x="24" y="156" width="11" height="11" transform="rotate(0,29.5,161.5)"/><path d="M 24 167v 11h 11v -5.5a 5.5 5.5, 0, 0, 0, -5.5 -5.5" transform="rotate(180,29.5,172.5)"/><path d="M 24 244v 11h 5.5a 5.5 5.5, 0, 0, 0, 0 -11" transform="rotate(180,29.5,249.5)"/><circle cx="29.5" cy="271.5" r="5.5" transform="rotate(0,29.5,271.5)"/><circle cx="29.5" cy="293.5" r="5.5" transform="rotate(0,29.5,293.5)"/><circle cx="29.5" cy="315.5" r="5.5" transform="rotate(0,29.5,315.5)"/><path d="M 24 343v 11h 5.5a 5.5 5.5, 0, 0, 0, 0 -11" transform="rotate(-90,29.5,348.5)"/><rect x="24" y="354" width="11" height="11" transform="rotate(0,29.5,359.5)"/><rect x="24" y="365" width="11" height="11" transform="rotate(0,29.5,370.5)"/><path d="M 24 376v 11h 5.5a 5.5 5.5, 0, 0, 0, 0 -11" transform="rotate(90,29.5,381.5)"/><path d="M 35 134v 11h 11v -5.5a 5.5 5.5, 0, 0, 0, -5.5 -5.5" transform="rotate(-90,40.5,139.5)"/><rect x="35" y="145" width="11" height="11" transform="rotate(0,40.5,150.5)"/><rect x="35" y="156" width="11" height="11" transform="rotate(0,40.5,161.5)"/><path d="M 35 167v 11h 11v -5.5a 5.5 5.5, 0, 0, 0, -5.5 -5.5" transform="rotate(90,40.5,172.5)"/><path d="M 35 200v 11h 5.5a 5.5 5.5, 0, 0, 0, 0 -11" transform="rotate(-90,40.5,205.5)"/><path d="M 35 211v 11h 5.5a 5.5 5.5, 0, 0, 0, 0 -11" transform="rotate(90,40.5,216.5)"/><path d="M 35 244v 11h 5.5a 5.5 5.5, 0, 0, 0, 0 -11" transform="rotate(0,40.5,249.5)"/><path d="M 35 321v 11h 5.5a 5.5 5.5, 0, 0, 0, 0 -11" transform="rotate(180,40.5,326.5)"/><path d="M 46 134v 11h 11v -5.5a 5.5 5.5, 0, 0, 0, -5.5 -5.5" transform="rotate(0,51.5,139.5)"/><rect x="46" y="145" width="11" height="11" transform="rotate(0,51.5,150.5)"/><path d="M 46 178v 11h 5.5a 5.5 5.5, 0, 0, 0, 0 -11" transform="rotate(180,51.5,183.5)"/><path d="M 46 222v 11h 11v -5.5a 5.5 5.5, 0, 0, 0, -5.5 -5.5" transform="rotate(-90,51.5,227.5)"/><path d="M 46 233v 11h 5.5a 5.5 5.5, 0, 0, 0, 0 -11" transform="rotate(90,51.5,238.5)"/><path d="M 46 255v 11h 5.5a 5.5 5.5, 0, 0, 0, 0 -11" transform="rotate(-90,51.5,260.5)"/><path d="M 46 266v 11h 5.5a 5.5 5.5, 0, 0, 0, 0 -11" transform="rotate(90,51.5,271.5)"/><circle cx="51.5" cy="293.5" r="5.5" transform="rotate(0,51.5,293.5)"/><path d="M 46 310v 11h 5.5a 5.5 5.5, 0, 0, 0, 0 -11" transform="rotate(-90,51.5,315.5)"/><rect x="46" y="321" width="11" height="11" transform="rotate(0,51.5,326.5)"/><path d="M 46 332v 11h 11v -5.5a 5.5 5.5, 0, 0, 0, -5.5 -5.5" transform="rotate(180,51.5,337.5)"/><circle cx="51.5" cy="381.5" r="5.5" transform="rotate(0,51.5,381.5)"/><circle cx="62.5" cy="128.5" r="5.5" transform="rotate(0,62.5,128.5)"/><path d="M 57 145v 11h 5.5a 5.5 5.5, 0, 0, 0, 0 -11" transform="rotate(0,62.5,150.5)"/><rect x="57" y="178" width="11" height="11" transform="rotate(0,62.5,183.5)"/><rect x="57" y="189" width="11" height="11" transform="rotate(0,62.5,194.5)"/><rect x="57" y="200" width="11" height="11" transform="rotate(0,62.5,205.5)"/><rect x="57" y="211" width="11" height="11" transform="rotate(0,62.5,216.5)"/><rect x="57" y="222" width="11" height="11" transform="rotate(0,62.5,227.5)"/><path d="M 57 244v 11h 5.5a 5.5 5.5, 0, 0, 0, 0 -11" transform="rotate(180,62.5,249.5)"/><rect x="57" y="321" width="11" height="11" transform="rotate(0,62.5,326.5)"/><rect x="57" y="332" width="11" height="11" transform="rotate(0,62.5,337.5)"/><rect x="57" y="343" width="11" height="11" transform="rotate(0,62.5,348.5)"/><path d="M 57 354v 11h 5.5a 5.5 5.5, 0, 0, 0, 0 -11" transform="rotate(90,62.5,359.5)"/><path d="M 68 112v 11h 5.5a 5.5 5.5, 0, 0, 0, 0 -11" transform="rotate(180,73.5,117.5)"/><path d="M 68 134v 11h 5.5a 5.5 5.5, 0, 0, 0, 0 -11" transform="rotate(180,73.5,139.5)"/><circle cx="73.5" cy="161.5" r="5.5" transform="rotate(0,73.5,161.5)"/><rect x="68" y="178" width="11" height="11" transform="rotate(0,73.5,183.5)"/><rect x="68" y="189" width="11" height="11" transform="rotate(0,73.5,194.5)"/><path d="M 68 200v 11h 11v -5.5a 5.5 5.5, 0, 0, 0, -5.5 -5.5" transform="rotate(90,73.5,205.5)"/><rect x="68" y="222" width="11" height="11" transform="rotate(0,73.5,227.5)"/><rect x="68" y="244" width="11" height="11" transform="rotate(0,73.5,249.5)"/><rect x="68" y="255" width="11" height="11" transform="rotate(0,73.5,260.5)"/><rect x="68" y="266" width="11" height="11" transform="rotate(0,73.5,271.5)"/><path d="M 68 277v 11h 5.5a 5.5 5.5, 0, 0, 0, 0 -11" transform="rotate(90,73.5,282.5)"/><path d="M 68 299v 11h 5.5a 5.5 5.5, 0, 0, 0, 0 -11" transform="rotate(-90,73.5,304.5)"/><rect x="68" y="310" width="11" height="11" transform="rotate(0,73.5,315.5)"/><rect x="68" y="321" width="11" height="11" transform="rotate(0,73.5,326.5)"/><path d="M 68 332v 11h 11v -5.5a 5.5 5.5, 0, 0, 0, -5.5 -5.5" transform="rotate(90,73.5,337.5)"/><circle cx="73.5" cy="370.5" r="5.5" transform="rotate(0,73.5,370.5)"/><rect x="79" y="112" width="11" height="11" transform="rotate(0,84.5,117.5)"/><rect x="79" y="123" width="11" height="11" transform="rotate(0,84.5,128.5)"/><rect x="79" y="134" width="11" height="11" transform="rotate(0,84.5,139.5)"/><path d="M 79 145v 11h 5.5a 5.5 5.5, 0, 0, 0, 0 -11" transform="rotate(90,84.5,150.5)"/><path d="M 79 167v 11h 5.5a 5.5 5.5, 0, 0, 0, 0 -11" transform="rotate(-90,84.5,172.5)"/><rect x="79" y="178" width="11" height="11" transform="rotate(0,84.5,183.5)"/><path d="M 79 211v 11h 5.5a 5.5 5.5, 0, 0, 0, 0 -11" transform="rotate(-90,84.5,216.5)"/><rect x="79" y="222" width="11" height="11" transform="rotate(0,84.5,227.5)"/><rect x="79" y="233" width="11" height="11" transform="rotate(0,84.5,238.5)"/><rect x="79" y="244" width="11" height="11" transform="rotate(0,84.5,249.5)"/><path d="M 79 321v 11h 5.5a 5.5 5.5, 0, 0, 0, 0 -11" transform="rotate(0,84.5,326.5)"/><path d="M 79 354v 11h 5.5a 5.5 5.5, 0, 0, 0, 0 -11" transform="rotate(180,84.5,359.5)"/><path d="M 90 112v 11h 5.5a 5.5 5.5, 0, 0, 0, 0 -11" transform="rotate(0,95.5,117.5)"/><path d="M 90 134v 11h 5.5a 5.5 5.5, 0, 0, 0, 0 -11" transform="rotate(0,95.5,139.5)"/><path d="M 90 156v 11h 5.5a 5.5 5.5, 0, 0, 0, 0 -11" transform="rotate(180,95.5,161.5)"/><path d="M 90 178v 11h 5.5a 5.5 5.5, 0, 0, 0, 0 -11" transform="rotate(0,95.5,183.5)"/><circle cx="95.5" cy="205.5" r="5.5" transform="rotate(0,95.5,205.5)"/><path d="M 90 222v 11h 5.5a 5.5 5.5, 0, 0, 0, 0 -11" transform="rotate(0,95.5,227.5)"/><rect x="90" y="244" width="11" height="11" transform="rotate(0,95.5,249.5)"/><circle cx="95.5" cy="271.5" r="5.5" transform="rotate(0,95.5,271.5)"/><path d="M 90 288v 11h 5.5a 5.5 5.5, 0, 0, 0, 0 -11" transform="rotate(180,95.5,293.5)"/><circle cx="95.5" cy="315.5" r="5.5" transform="rotate(0,95.5,315.5)"/><circle cx="95.5" cy="337.5" r="5.5" transform="rotate(0,95.5,337.5)"/><path d="M 90 354v 11h 5.5a 5.5 5.5, 0, 0, 0, 0 -11" transform="rotate(0,95.5,359.5)"/><circle cx="95.5" cy="381.5" r="5.5" transform="rotate(0,95.5,381.5)"/><path d="M 101 145v 11h 11v -5.5a 5.5 5.5, 0, 0, 0, -5.5 -5.5" transform="rotate(-90,106.5,150.5)"/><path d="M 101 156v 11h 11v -5.5a 5.5 5.5, 0, 0, 0, -5.5 -5.5" transform="rotate(90,106.5,161.5)"/><circle cx="106.5" cy="194.5" r="5.5" transform="rotate(0,106.5,194.5)"/><path d="M 101 233v 11h 11v -5.5a 5.5 5.5, 0, 0, 0, -5.5 -5.5" transform="rotate(-90,106.5,238.5)"/><path d="M 101 244v 11h 11v -5.5a 5.5 5.5, 0, 0, 0, -5.5 -5.5" transform="rotate(90,106.5,249.5)"/><path d="M 101 277v 11h 5.5a 5.5 5.5, 0, 0, 0, 0 -11" transform="rotate(-90,106.5,282.5)"/><rect x="101" y="288" width="11" height="11" transform="rotate(0,106.5,293.5)"/><path d="M 101 321v 11h 5.5a 5.5 5.5, 0, 0, 0, 0 -11" transform="rotate(180,106.5,326.5)"/><circle cx="106.5" cy="370.5" r="5.5" transform="rotate(0,106.5,370.5)"/><path d="M 112 35v 11h 11v -5.5a 5.5 5.5, 0, 0, 0, -5.5 -5.5" transform="rotate(-90,117.5,40.5)"/><rect x="112" y="46" width="11" height="11" transform="rotate(0,117.5,51.5)"/><rect x="112" y="57" width="11" height="11" transform="rotate(0,117.5,62.5)"/><rect x="112" y="68" width="11" height="11" transform="rotate(0,117.5,73.5)"/><rect x="112" y="79" width="11" height="11" transform="rotate(0,117.5,84.5)"/><rect x="112" y="90" width="11" height="11" transform="rotate(0,117.5,95.5)"/><path d="M 112 101v 11h 5.5a 5.5 5.5, 0, 0, 0, 0 -11" transform="rotate(90,117.5,106.5)"/><path d="M 112 145v 11h 5.5a 5.5 5.5, 0, 0, 0, 0 -11" transform="rotate(0,117.5,150.5)"/><circle cx="117.5" cy="172.5" r="5.5" transform="rotate(0,117.5,172.5)"/><path d="M 112 233v 11h 5.5a 5.5 5.5, 0, 0, 0, 0 -11" transform="rotate(0,117.5,238.5)"/><path d="M 112 255v 11h 5.5a 5.5 5.5, 0, 0, 0, 0 -11" transform="rotate(180,117.5,260.5)"/><rect x="112" y="288" width="11" height="11" transform="rotate(0,117.5,293.5)"/><rect x="112" y="299" width="11" height="11" transform="rotate(0,117.5,304.5)"/><rect x="112" y="310" width="11" height="11" transform="rotate(0,117.5,315.5)"/><path d="M 112 321v 11h 11v -5.5a 5.5 5.5, 0, 0, 0, -5.5 -5.5" transform="rotate(90,117.5,326.5)"/><path d="M 112 343v 11h 5.5a 5.5 5.5, 0, 0, 0, 0 -11" transform="rotate(180,117.5,348.5)"/><path d="M 112 409v 11h 5.5a 5.5 5.5, 0, 0, 0, 0 -11" transform="rotate(-90,117.5,414.5)"/><path d="M 112 420v 11h 11v -5.5a 5.5 5.5, 0, 0, 0, -5.5 -5.5" transform="rotate(180,117.5,425.5)"/><circle cx="117.5" cy="469.5" r="5.5" transform="rotate(0,117.5,469.5)"/><path d="M 123 24v 11h 11v -5.5a 5.5 5.5, 0, 0, 0, -5.5 -5.5" transform="rotate(-90,128.5,29.5)"/><rect x="123" y="35" width="11" height="11" transform="rotate(0,128.5,40.5)"/><rect x="123" y="46" width="11" height="11" transform="rotate(0,128.5,51.5)"/><rect x="123" y="57" width="11" height="11" transform="rotate(0,128.5,62.5)"/><rect x="123" y="68" width="11" height="11" transform="rotate(0,128.5,73.5)"/><path d="M 123 79v 11h 11v -5.5a 5.5 5.5, 0, 0, 0, -5.5 -5.5" transform="rotate(90,128.5,84.5)"/><path d="M 123 112v 11h 5.5a 5.5 5.5, 0, 0, 0, 0 -11" transform="rotate(-90,128.5,117.5)"/><rect x="123" y="123" width="11" height="11" transform="rotate(0,128.5,128.5)"/><path d="M 123 134v 11h 5.5a 5.5 5.5, 0, 0, 0, 0 -11" transform="rotate(90,128.5,139.5)"/><path d="M 123 178v 11h 5.5a 5.5 5.5, 0, 0, 0, 0 -11" transform="rotate(180,128.5,183.5)"/><path d="M 123 211v 11h 5.5a 5.5 5.5, 0, 0, 0, 0 -11" transform="rotate(-90,128.5,216.5)"/><path d="M 123 222v 11h 5.5a 5.5 5.5, 0, 0, 0, 0 -11" transform="rotate(90,128.5,227.5)"/><path d="M 123 244v 11h 5.5a 5.5 5.5, 0, 0, 0, 0 -11" transform="rotate(-90,128.5,249.5)"/><rect x="123" y="255" width="11" height="11" transform="rotate(0,128.5,260.5)"/><path d="M 123 266v 11h 11v -5.5a 5.5 5.5, 0, 0, 0, -5.5 -5.5" transform="rotate(180,128.5,271.5)"/><rect x="123" y="288" width="11" height="11" transform="rotate(0,128.5,293.5)"/><path d="M 123 332v 11h 11v -5.5a 5.5 5.5, 0, 0, 0, -5.5 -5.5" transform="rotate(-90,128.5,337.5)"/><rect x="123" y="343" width="11" height="11" transform="rotate(0,128.5,348.5)"/><path d="M 123 365v 11h 5.5a 5.5 5.5, 0, 0, 0, 0 -11" transform="rotate(-90,128.5,370.5)"/><path d="M 123 376v 11h 11v -5.5a 5.5 5.5, 0, 0, 0, -5.5 -5.5" transform="rotate(180,128.5,381.5)"/><circle cx="128.5" cy="403.5" r="5.5" transform="rotate(0,128.5,403.5)"/><rect x="123" y="420" width="11" height="11" transform="rotate(0,128.5,425.5)"/><circle cx="128.5" cy="447.5" r="5.5" transform="rotate(0,128.5,447.5)"/><path d="M 134 24v 11h 11v -5.5a 5.5 5.5, 0, 0, 0, -5.5 -5.5" transform="rotate(0,139.5,29.5)"/><rect x="134" y="35" width="11" height="11" transform="rotate(0,139.5,40.5)"/><rect x="134" y="46" width="11" height="11" transform="rotate(0,139.5,51.5)"/><rect x="134" y="57" width="11" height="11" transform="rotate(0,139.5,62.5)"/><path d="M 134 68v 11h 11v -5.5a 5.5 5.5, 0, 0, 0, -5.5 -5.5" transform="rotate(90,139.5,73.5)"/><path d="M 134 90v 11h 5.5a 5.5 5.5, 0, 0, 0, 0 -11" transform="rotate(-90,139.5,95.5)"/><path d="M 134 101v 11h 11v -5.5a 5.5 5.5, 0, 0, 0, -5.5 -5.5" transform="rotate(180,139.5,106.5)"/><rect x="134" y="123" width="11" height="11" transform="rotate(0,139.5,128.5)"/><path d="M 134 145v 11h 5.5a 5.5 5.5, 0, 0, 0, 0 -11" transform="rotate(-90,139.5,150.5)"/><path d="M 134 156v 11h 5.5a 5.5 5.5, 0, 0, 0, 0 -11" transform="rotate(90,139.5,161.5)"/><rect x="134" y="178" width="11" height="11" transform="rotate(0,139.5,183.5)"/><circle cx="139.5" cy="238.5" r="5.5" transform="rotate(0,139.5,238.5)"/><path d="M 134 255v 11h 11v -5.5a 5.5 5.5, 0, 0, 0, -5.5 -5.5" transform="rotate(0,139.5,260.5)"/><rect x="134" y="266" width="11" height="11" transform="rotate(0,139.5,271.5)"/><rect x="134" y="277" width="11" height="11" transform="rotate(0,139.5,282.5)"/><rect x="134" y="288" width="11" height="11" transform="rotate(0,139.5,293.5)"/><rect x="134" y="299" width="11" height="11" transform="rotate(0,139.5,304.5)"/><rect x="134" y="310" width="11" height="11" transform="rotate(0,139.5,315.5)"/><rect x="134" y="321" width="11" height="11" transform="rotate(0,139.5,326.5)"/><rect x="134" y="332" width="11" height="11" transform="rotate(0,139.5,337.5)"/><path d="M 134 343v 11h 11v -5.5a 5.5 5.5, 0, 0, 0, -5.5 -5.5" transform="rotate(90,139.5,348.5)"/><rect x="134" y="376" width="11" height="11" transform="rotate(0,139.5,381.5)"/><path d="M 134 387v 11h 5.5a 5.5 5.5, 0, 0, 0, 0 -11" transform="rotate(90,139.5,392.5)"/><path d="M 134 409v 11h 5.5a 5.5 5.5, 0, 0, 0, 0 -11" transform="rotate(-90,139.5,414.5)"/><rect x="134" y="420" width="11" height="11" transform="rotate(0,139.5,425.5)"/><rect x="145" y="35" width="11" height="11" transform="rotate(0,150.5,40.5)"/><path d="M 145 79v 11h 5.5a 5.5 5.5, 0, 0, 0, 0 -11" transform="rotate(180,150.5,84.5)"/><path d="M 145 101v 11h 5.5a 5.5 5.5, 0, 0, 0, 0 -11" transform="rotate(0,150.5,106.5)"/><rect x="145" y="123" width="11" height="11" transform="rotate(0,150.5,128.5)"/><path d="M 145 134v 11h 5.5a 5.5 5.5, 0, 0, 0, 0 -11" transform="rotate(90,150.5,139.5)"/><path d="M 145 178v 11h 5.5a 5.5 5.5, 0, 0, 0, 0 -11" transform="rotate(0,150.5,183.5)"/><circle cx="150.5" cy="216.5" r="5.5" transform="rotate(0,150.5,216.5)"/><circle cx="150.5" cy="249.5" r="5.5" transform="rotate(0,150.5,249.5)"/><path d="M 145 266v 11h 11v -5.5a 5.5 5.5, 0, 0, 0, -5.5 -5.5" transform="rotate(0,150.5,271.5)"/><path d="M 145 277v 11h 11v -5.5a 5.5 5.5, 0, 0, 0, -5.5 -5.5" transform="rotate(90,150.5,282.5)"/><path d="M 145 332v 11h 5.5a 5.5 5.5, 0, 0, 0, 0 -11" transform="rotate(0,150.5,337.5)"/><path d="M 145 365v 11h 11v -5.5a 5.5 5.5, 0, 0, 0, -5.5 -5.5" transform="rotate(-90,150.5,370.5)"/><rect x="145" y="376" width="11" height="11" transform="rotate(0,150.5,381.5)"/><circle cx="150.5" cy="403.5" r="5.5" transform="rotate(0,150.5,403.5)"/><path d="M 145 420v 11h 11v -5.5a 5.5 5.5, 0, 0, 0, -5.5 -5.5" transform="rotate(0,150.5,425.5)"/><path d="M 145 431v 11h 11v -5.5a 5.5 5.5, 0, 0, 0, -5.5 -5.5" transform="rotate(180,150.5,436.5)"/><path d="M 145 453v 11h 5.5a 5.5 5.5, 0, 0, 0, 0 -11" transform="rotate(180,150.5,458.5)"/><path d="M 156 35v 11h 11v -5.5a 5.5 5.5, 0, 0, 0, -5.5 -5.5" transform="rotate(0,161.5,40.5)"/><path d="M 156 46v 11h 5.5a 5.5 5.5, 0, 0, 0, 0 -11" transform="rotate(90,161.5,51.5)"/><rect x="156" y="79" width="11" height="11" transform="rotate(0,161.5,84.5)"/><path d="M 156 90v 11h 5.5a 5.5 5.5, 0, 0, 0, 0 -11" transform="rotate(90,161.5,95.5)"/><rect x="156" y="123" width="11" height="11" transform="rotate(0,161.5,128.5)"/><path d="M 156 189v 11h 5.5a 5.5 5.5, 0, 0, 0, 0 -11" transform="rotate(180,161.5,194.5)"/><path d="M 156 310v 11h 11v -5.5a 5.5 5.5, 0, 0, 0, -5.5 -5.5" transform="rotate(-90,161.5,315.5)"/><path d="M 156 321v 11h 11v -5.5a 5.5 5.5, 0, 0, 0, -5.5 -5.5" transform="rotate(180,161.5,326.5)"/><rect x="156" y="365" width="11" height="11" transform="rotate(0,161.5,370.5)"/><path d="M 156 376v 11h 11v -5.5a 5.5 5.5, 0, 0, 0, -5.5 -5.5" transform="rotate(90,161.5,381.5)"/><path d="M 156 431v 11h 11v -5.5a 5.5 5.5, 0, 0, 0, -5.5 -5.5" transform="rotate(0,161.5,436.5)"/><rect x="156" y="442" width="11" height="11" transform="rotate(0,161.5,447.5)"/><path d="M 156 453v 11h 11v -5.5a 5.5 5.5, 0, 0, 0, -5.5 -5.5" transform="rotate(90,161.5,458.5)"/><path d="M 167 79v 11h 5.5a 5.5 5.5, 0, 0, 0, 0 -11" transform="rotate(0,172.5,84.5)"/><path d="M 167 101v 11h 11v -5.5a 5.5 5.5, 0, 0, 0, -5.5 -5.5" transform="rotate(-90,172.5,106.5)"/><rect x="167" y="112" width="11" height="11" transform="rotate(0,172.5,117.5)"/><rect x="167" y="123" width="11" height="11" transform="rotate(0,172.5,128.5)"/><path d="M 167 145v 11h 5.5a 5.5 5.5, 0, 0, 0, 0 -11" transform="rotate(180,172.5,150.5)"/><rect x="167" y="189" width="11" height="11" transform="rotate(0,172.5,194.5)"/><path d="M 167 200v 11h 11v -5.5a 5.5 5.5, 0, 0, 0, -5.5 -5.5" transform="rotate(180,172.5,205.5)"/><path d="M 167 222v 11h 5.5a 5.5 5.5, 0, 0, 0, 0 -11" transform="rotate(180,172.5,227.5)"/><path d="M 167 266v 11h 5.5a 5.5 5.5, 0, 0, 0, 0 -11" transform="rotate(180,172.5,271.5)"/><path d="M 167 288v 11h 5.5a 5.5 5.5, 0, 0, 0, 0 -11" transform="rotate(-90,172.5,293.5)"/><rect x="167" y="299" width="11" height="11" transform="rotate(0,172.5,304.5)"/><rect x="167" y="310" width="11" height="11" transform="rotate(0,172.5,315.5)"/><rect x="167" y="321" width="11" height="11" transform="rotate(0,172.5,326.5)"/><rect x="167" y="332" width="11" height="11" transform="rotate(0,172.5,337.5)"/><rect x="167" y="343" width="11" height="11" transform="rotate(0,172.5,348.5)"/><rect x="167" y="354" width="11" height="11" transform="rotate(0,172.5,359.5)"/><path d="M 167 365v 11h 11v -5.5a 5.5 5.5, 0, 0, 0, -5.5 -5.5" transform="rotate(90,172.5,370.5)"/><path d="M 167 387v 11h 11v -5.5a 5.5 5.5, 0, 0, 0, -5.5 -5.5" transform="rotate(-90,172.5,392.5)"/><rect x="167" y="398" width="11" height="11" transform="rotate(0,172.5,403.5)"/><rect x="167" y="409" width="11" height="11" transform="rotate(0,172.5,414.5)"/><path d="M 167 420v 11h 5.5a 5.5 5.5, 0, 0, 0, 0 -11" transform="rotate(90,172.5,425.5)"/><path d="M 178 35v 11h 11v -5.5a 5.5 5.5, 0, 0, 0, -5.5 -5.5" transform="rotate(-90,183.5,40.5)"/><rect x="178" y="46" width="11" height="11" transform="rotate(0,183.5,51.5)"/><path d="M 178 57v 11h 5.5a 5.5 5.5, 0, 0, 0, 0 -11" transform="rotate(90,183.5,62.5)"/><path d="M 178 90v 11h 5.5a 5.5 5.5, 0, 0, 0, 0 -11" transform="rotate(-90,183.5,95.5)"/><rect x="178" y="101" width="11" height="11" transform="rotate(0,183.5,106.5)"/><rect x="178" y="112" width="11" height="11" transform="rotate(0,183.5,117.5)"/><path d="M 178 123v 11h 11v -5.5a 5.5 5.5, 0, 0, 0, -5.5 -5.5" transform="rotate(90,183.5,128.5)"/><path d="M 178 145v 11h 11v -5.5a 5.5 5.5, 0, 0, 0, -5.5 -5.5" transform="rotate(0,183.5,150.5)"/><rect x="178" y="156" width="11" height="11" transform="rotate(0,183.5,161.5)"/><path d="M 178 167v 11h 11v -5.5a 5.5 5.5, 0, 0, 0, -5.5 -5.5" transform="rotate(180,183.5,172.5)"/><rect x="178" y="189" width="11" height="11" transform="rotate(0,183.5,194.5)"/><rect x="178" y="200" width="11" height="11" transform="rotate(0,183.5,205.5)"/><rect x="178" y="211" width="11" height="11" transform="rotate(0,183.5,216.5)"/><rect x="178" y="222" width="11" height="11" transform="rotate(0,183.5,227.5)"/><path d="M 178 244v 11h 11v -5.5a 5.5 5.5, 0, 0, 0, -5.5 -5.5" transform="rotate(-90,183.5,249.5)"/><rect x="178" y="255" width="11" height="11" transform="rotate(0,183.5,260.5)"/><rect x="178" y="266" width="11" height="11" transform="rotate(0,183.5,271.5)"/><rect x="178" y="310" width="11" height="11" transform="rotate(0,183.5,315.5)"/><path d="M 178 343v 11h 5.5a 5.5 5.5, 0, 0, 0, 0 -11" transform="rotate(0,183.5,348.5)"/><path d="M 178 387v 11h 5.5a 5.5 5.5, 0, 0, 0, 0 -11" transform="rotate(0,183.5,392.5)"/><rect x="178" y="409" width="11" height="11" transform="rotate(0,183.5,414.5)"/><path d="M 189 24v 11h 11v -5.5a 5.5 5.5, 0, 0, 0, -5.5 -5.5" transform="rotate(-90,194.5,29.5)"/><rect x="189" y="35" width="11" height="11" transform="rotate(0,194.5,40.5)"/><path d="M 189 46v 11h 11v -5.5a 5.5 5.5, 0, 0, 0, -5.5 -5.5" transform="rotate(90,194.5,51.5)"/><path d="M 189 79v 11h 5.5a 5.5 5.5, 0, 0, 0, 0 -11" transform="rotate(180,194.5,84.5)"/><path d="M 189 101v 11h 11v -5.5a 5.5 5.5, 0, 0, 0, -5.5 -5.5" transform="rotate(0,194.5,106.5)"/><path d="M 189 112v 11h 11v -5.5a 5.5 5.5, 0, 0, 0, -5.5 -5.5" transform="rotate(90,194.5,117.5)"/><path d="M 189 134v 11h 5.5a 5.5 5.5, 0, 0, 0, 0 -11" transform="rotate(180,194.5,139.5)"/><rect x="189" y="156" width="11" height="11" transform="rotate(0,194.5,161.5)"/><rect x="189" y="167" width="11" height="11" transform="rotate(0,194.5,172.5)"/><rect x="189" y="189" width="11" height="11" transform="rotate(0,194.5,194.5)"/><path d="M 189 222v 11h 11v -5.5a 5.5 5.5, 0, 0, 0, -5.5 -5.5" transform="rotate(0,194.5,227.5)"/><rect x="189" y="233" width="11" height="11" transform="rotate(0,194.5,238.5)"/><path d="M 189 244v 11h 11v -5.5a 5.5 5.5, 0, 0, 0, -5.5 -5.5" transform="rotate(90,194.5,249.5)"/><path d="M 189 266v 11h 5.5a 5.5 5.5, 0, 0, 0, 0 -11" transform="rotate(0,194.5,271.5)"/><circle cx="194.5" cy="293.5" r="5.5" transform="rotate(0,194.5,293.5)"/><path d="M 189 310v 11h 5.5a 5.5 5.5, 0, 0, 0, 0 -11" transform="rotate(0,194.5,315.5)"/><circle cx="194.5" cy="337.5" r="5.5" transform="rotate(0,194.5,337.5)"/><path d="M 189 376v 11h 5.5a 5.5 5.5, 0, 0, 0, 0 -11" transform="rotate(180,194.5,381.5)"/><path d="M 189 398v 11h 5.5a 5.5 5.5, 0, 0, 0, 0 -11" transform="rotate(-90,194.5,403.5)"/><rect x="189" y="409" width="11" height="11" transform="rotate(0,194.5,414.5)"/><rect x="200" y="24" width="11" height="11" transform="rotate(0,205.5,29.5)"/><path d="M 200 68v 11h 11v -5.5a 5.5 5.5, 0, 0, 0, -5.5 -5.5" transform="rotate(-90,205.5,73.5)"/><rect x="200" y="79" width="11" height="11" transform="rotate(0,205.5,84.5)"/><path d="M 200 90v 11h 5.5a 5.5 5.5, 0, 0, 0, 0 -11" transform="rotate(90,205.5,95.5)"/><rect x="200" y="134" width="11" height="11" transform="rotate(0,205.5,139.5)"/><path d="M 200 156v 11h 11v -5.5a 5.5 5.5, 0, 0, 0, -5.5 -5.5" transform="rotate(0,205.5,161.5)"/><rect x="200" y="167" width="11" height="11" transform="rotate(0,205.5,172.5)"/><rect x="200" y="178" width="11" height="11" transform="rotate(0,205.5,183.5)"/><rect x="200" y="189" width="11" height="11" transform="rotate(0,205.5,194.5)"/><path d="M 200 200v 11h 11v -5.5a 5.5 5.5, 0, 0, 0, -5.5 -5.5" transform="rotate(180,205.5,205.5)"/><rect x="200" y="233" width="11" height="11" transform="rotate(0,205.5,238.5)"/><path d="M 200 299v 11h 5.5a 5.5 5.5, 0, 0, 0, 0 -11" transform="rotate(180,205.5,304.5)"/><circle cx="205.5" cy="348.5" r="5.5" transform="rotate(0,205.5,348.5)"/><rect x="200" y="376" width="11" height="11" transform="rotate(0,205.5,381.5)"/><path d="M 200 387v 11h 5.5a 5.5 5.5, 0, 0, 0, 0 -11" transform="rotate(90,205.5,392.5)"/><rect x="200" y="409" width="11" height="11" transform="rotate(0,205.5,414.5)"/><circle cx="205.5" cy="447.5" r="5.5" transform="rotate(0,205.5,447.5)"/><rect x="211" y="24" width="11" height="11" transform="rotate(0,216.5,29.5)"/><path d="M 211 35v 11h 5.5a 5.5 5.5, 0, 0, 0, 0 -11" transform="rotate(90,216.5,40.5)"/><rect x="211" y="68" width="11" height="11" transform="rotate(0,216.5,73.5)"/><path d="M 211 101v 11h 5.5a 5.5 5.5, 0, 0, 0, 0 -11" transform="rotate(-90,216.5,106.5)"/><rect x="211" y="112" width="11" height="11" transform="rotate(0,216.5,117.5)"/><rect x="211" y="123" width="11" height="11" transform="rotate(0,216.5,128.5)"/><path d="M 211 134v 11h 11v -5.5a 5.5 5.5, 0, 0, 0, -5.5 -5.5" transform="rotate(90,216.5,139.5)"/><path d="M 211 167v 11h 11v -5.5a 5.5 5.5, 0, 0, 0, -5.5 -5.5" transform="rotate(0,216.5,172.5)"/><rect x="211" y="178" width="11" height="11" transform="rotate(0,216.5,183.5)"/><rect x="211" y="189" width="11" height="11" transform="rotate(0,216.5,194.5)"/><path d="M 211 200v 11h 11v -5.5a 5.5 5.5, 0, 0, 0, -5.5 -5.5" transform="rotate(90,216.5,205.5)"/><path d="M 211 233v 11h 5.5a 5.5 5.5, 0, 0, 0, 0 -11" transform="rotate(0,216.5,238.5)"/><circle cx="216.5" cy="282.5" r="5.5" transform="rotate(0,216.5,282.5)"/><rect x="211" y="299" width="11" height="11" transform="rotate(0,216.5,304.5)"/><path d="M 211 310v 11h 11v -5.5a 5.5 5.5, 0, 0, 0, -5.5 -5.5" transform="rotate(180,216.5,315.5)"/><path d="M 211 332v 11h 5.5a 5.5 5.5, 0, 0, 0, 0 -11" transform="rotate(180,216.5,337.5)"/><path d="M 211 354v 11h 11v -5.5a 5.5 5.5, 0, 0, 0, -5.5 -5.5" transform="rotate(-90,216.5,359.5)"/><rect x="211" y="365" width="11" height="11" transform="rotate(0,216.5,370.5)"/><rect x="211" y="376" width="11" height="11" transform="rotate(0,216.5,381.5)"/><path d="M 211 398v 11h 11v -5.5a 5.5 5.5, 0, 0, 0, -5.5 -5.5" transform="rotate(-90,216.5,403.5)"/><rect x="211" y="409" width="11" height="11" transform="rotate(0,216.5,414.5)"/><path d="M 211 420v 11h 11v -5.5a 5.5 5.5, 0, 0, 0, -5.5 -5.5" transform="rotate(180,216.5,425.5)"/><circle cx="216.5" cy="469.5" r="5.5" transform="rotate(0,216.5,469.5)"/><rect x="222" y="24" width="11" height="11" transform="rotate(0,227.5,29.5)"/><path d="M 222 57v 11h 5.5a 5.5 5.5, 0, 0, 0, 0 -11" transform="rotate(-90,227.5,62.5)"/><rect x="222" y="68" width="11" height="11" transform="rotate(0,227.5,73.5)"/><rect x="222" y="79" width="11" height="11" transform="rotate(0,227.5,84.5)"/><path d="M 222 90v 11h 5.5a 5.5 5.5, 0, 0, 0, 0 -11" transform="rotate(90,227.5,95.5)"/><rect x="222" y="112" width="11" height="11" transform="rotate(0,227.5,117.5)"/><path d="M 222 145v 11h 5.5a 5.5 5.5, 0, 0, 0, 0 -11" transform="rotate(-90,227.5,150.5)"/><path d="M 222 156v 11h 11v -5.5a 5.5 5.5, 0, 0, 0, -5.5 -5.5" transform="rotate(180,227.5,161.5)"/><rect x="222" y="178" width="11" height="11" transform="rotate(0,227.5,183.5)"/><path d="M 222 189v 11h 11v -5.5a 5.5 5.5, 0, 0, 0, -5.5 -5.5" transform="rotate(90,227.5,194.5)"/><path d="M 222 222v 11h 5.5a 5.5 5.5, 0, 0, 0, 0 -11" transform="rotate(180,227.5,227.5)"/><circle cx="227.5" cy="260.5" r="5.5" transform="rotate(0,227.5,260.5)"/><rect x="222" y="299" width="11" height="11" transform="rotate(0,227.5,304.5)"/><rect x="222" y="310" width="11" height="11" transform="rotate(0,227.5,315.5)"/><rect x="222" y="321" width="11" height="11" transform="rotate(0,227.5,326.5)"/><path d="M 222 332v 11h 11v -5.5a 5.5 5.5, 0, 0, 0, -5.5 -5.5" transform="rotate(90,227.5,337.5)"/><rect x="222" y="354" width="11" height="11" transform="rotate(0,227.5,359.5)"/><rect x="222" y="376" width="11" height="11" transform="rotate(0,227.5,381.5)"/><path d="M 222 398v 11h 5.5a 5.5 5.5, 0, 0, 0, 0 -11" transform="rotate(0,227.5,403.5)"/><rect x="222" y="420" width="11" height="11" transform="rotate(0,227.5,425.5)"/><path d="M 222 431v 11h 11v -5.5a 5.5 5.5, 0, 0, 0, -5.5 -5.5" transform="rotate(180,227.5,436.5)"/><path d="M 233 24v 11h 11v -5.5a 5.5 5.5, 0, 0, 0, -5.5 -5.5" transform="rotate(0,238.5,29.5)"/><rect x="233" y="35" width="11" height="11" transform="rotate(0,238.5,40.5)"/><path d="M 233 46v 11h 11v -5.5a 5.5 5.5, 0, 0, 0, -5.5 -5.5" transform="rotate(180,238.5,51.5)"/><path d="M 233 79v 11h 5.5a 5.5 5.5, 0, 0, 0, 0 -11" transform="rotate(0,238.5,84.5)"/><path d="M 233 101v 11h 5.5a 5.5 5.5, 0, 0, 0, 0 -11" transform="rotate(-90,238.5,106.5)"/><rect x="233" y="112" width="11" height="11" transform="rotate(0,238.5,117.5)"/><circle cx="238.5" cy="139.5" r="5.5" transform="rotate(0,238.5,139.5)"/><path d="M 233 156v 11h 5.5a 5.5 5.5, 0, 0, 0, 0 -11" transform="rotate(0,238.5,161.5)"/><path d="M 233 178v 11h 5.5a 5.5 5.5, 0, 0, 0, 0 -11" transform="rotate(0,238.5,183.5)"/><path d="M 233 211v 11h 11v -5.5a 5.5 5.5, 0, 0, 0, -5.5 -5.5" transform="rotate(-90,238.5,216.5)"/><path d="M 233 222v 11h 11v -5.5a 5.5 5.5, 0, 0, 0, -5.5 -5.5" transform="rotate(90,238.5,227.5)"/><path d="M 233 244v 11h 5.5a 5.5 5.5, 0, 0, 0, 0 -11" transform="rotate(180,238.5,249.5)"/><path d="M 233 288v 11h 11v -5.5a 5.5 5.5, 0, 0, 0, -5.5 -5.5" transform="rotate(-90,238.5,293.5)"/><path d="M 233 299v 11h 11v -5.5a 5.5 5.5, 0, 0, 0, -5.5 -5.5" transform="rotate(90,238.5,304.5)"/><rect x="233" y="321" width="11" height="11" transform="rotate(0,238.5,326.5)"/><rect x="233" y="354" width="11" height="11" transform="rotate(0,238.5,359.5)"/><rect x="233" y="376" width="11" height="11" transform="rotate(0,238.5,381.5)"/><path d="M 233 420v 11h 11v -5.5a 5.5 5.5, 0, 0, 0, -5.5 -5.5" transform="rotate(0,238.5,425.5)"/><path d="M 233 431v 11h 11v -5.5a 5.5 5.5, 0, 0, 0, -5.5 -5.5" transform="rotate(90,238.5,436.5)"/><path d="M 233 453v 11h 5.5a 5.5 5.5, 0, 0, 0, 0 -11" transform="rotate(180,238.5,458.5)"/><path d="M 244 35v 11h 11v -5.5a 5.5 5.5, 0, 0, 0, -5.5 -5.5" transform="rotate(0,249.5,40.5)"/><rect x="244" y="46" width="11" height="11" transform="rotate(0,249.5,51.5)"/><path d="M 244 68v 11h 5.5a 5.5 5.5, 0, 0, 0, 0 -11" transform="rotate(180,249.5,73.5)"/><circle cx="249.5" cy="95.5" r="5.5" transform="rotate(0,249.5,95.5)"/><rect x="244" y="112" width="11" height="11" transform="rotate(0,249.5,117.5)"/><path d="M 244 123v 11h 5.5a 5.5 5.5, 0, 0, 0, 0 -11" transform="rotate(90,249.5,128.5)"/><circle cx="249.5" cy="150.5" r="5.5" transform="rotate(0,249.5,150.5)"/><circle cx="249.5" cy="172.5" r="5.5" transform="rotate(0,249.5,172.5)"/><path d="M 244 211v 11h 5.5a 5.5 5.5, 0, 0, 0, 0 -11" transform="rotate(0,249.5,216.5)"/><rect x="244" y="244" width="11" height="11" transform="rotate(0,249.5,249.5)"/><rect x="244" y="255" width="11" height="11" transform="rotate(0,249.5,260.5)"/><path d="M 244 266v 11h 5.5a 5.5 5.5, 0, 0, 0, 0 -11" transform="rotate(90,249.5,271.5)"/><path d="M 244 288v 11h 5.5a 5.5 5.5, 0, 0, 0, 0 -11" transform="rotate(0,249.5,293.5)"/><path d="M 244 310v 11h 5.5a 5.5 5.5, 0, 0, 0, 0 -11" transform="rotate(-90,249.5,315.5)"/><rect x="244" y="321" width="11" height="11" transform="rotate(0,249.5,326.5)"/><path d="M 244 332v 11h 11v -5.5a 5.5 5.5, 0, 0, 0, -5.5 -5.5" transform="rotate(180,249.5,337.5)"/><rect x="244" y="354" width="11" height="11" transform="rotate(0,249.5,359.5)"/><rect x="244" y="376" width="11" height="11" transform="rotate(0,249.5,381.5)"/><path d="M 244 387v 11h 11v -5.5a 5.5 5.5, 0, 0, 0, -5.5 -5.5" transform="rotate(180,249.5,392.5)"/><path d="M 244 409v 11h 5.5a 5.5 5.5, 0, 0, 0, 0 -11" transform="rotate(180,249.5,414.5)"/><rect x="244" y="453" width="11" height="11" transform="rotate(0,249.5,458.5)"/><rect x="255" y="46" width="11" height="11" transform="rotate(0,260.5,51.5)"/><rect x="255" y="68" width="11" height="11" transform="rotate(0,260.5,73.5)"/><path d="M 255 79v 11h 11v -5.5a 5.5 5.5, 0, 0, 0, -5.5 -5.5" transform="rotate(180,260.5,84.5)"/><path d="M 255 101v 11h 5.5a 5.5 5.5, 0, 0, 0, 0 -11" transform="rotate(-90,260.5,106.5)"/><path d="M 255 112v 11h 11v -5.5a 5.5 5.5, 0, 0, 0, -5.5 -5.5" transform="rotate(90,260.5,117.5)"/><path d="M 255 134v 11h 5.5a 5.5 5.5, 0, 0, 0, 0 -11" transform="rotate(180,260.5,139.5)"/><circle cx="260.5" cy="161.5" r="5.5" transform="rotate(0,260.5,161.5)"/><path d="M 255 189v 11h 5.5a 5.5 5.5, 0, 0, 0, 0 -11" transform="rotate(-90,260.5,194.5)"/><path d="M 255 200v 11h 11v -5.5a 5.5 5.5, 0, 0, 0, -5.5 -5.5" transform="rotate(180,260.5,205.5)"/><rect x="255" y="244" width="11" height="11" transform="rotate(0,260.5,249.5)"/><rect x="255" y="321" width="11" height="11" transform="rotate(0,260.5,326.5)"/><rect x="255" y="332" width="11" height="11" transform="rotate(0,260.5,337.5)"/><rect x="255" y="354" width="11" height="11" transform="rotate(0,260.5,359.5)"/><rect x="255" y="365" width="11" height="11" transform="rotate(0,260.5,370.5)"/><rect x="255" y="376" width="11" height="11" transform="rotate(0,260.5,381.5)"/><rect x="255" y="387" width="11" height="11" transform="rotate(0,260.5,392.5)"/><rect x="255" y="398" width="11" height="11" transform="rotate(0,260.5,403.5)"/><rect x="255" y="409" width="11" height="11" transform="rotate(0,260.5,414.5)"/><rect x="255" y="420" width="11" height="11" transform="rotate(0,260.5,425.5)"/><rect x="255" y="431" width="11" height="11" transform="rotate(0,260.5,436.5)"/><rect x="255" y="442" width="11" height="11" transform="rotate(0,260.5,447.5)"/><rect x="255" y="453" width="11" height="11" transform="rotate(0,260.5,458.5)"/><path d="M 255 464v 11h 5.5a 5.5 5.5, 0, 0, 0, 0 -11" transform="rotate(90,260.5,469.5)"/><path d="M 266 24v 11h 5.5a 5.5 5.5, 0, 0, 0, 0 -11" transform="rotate(-90,271.5,29.5)"/><rect x="266" y="35" width="11" height="11" transform="rotate(0,271.5,40.5)"/><rect x="266" y="46" width="11" height="11" transform="rotate(0,271.5,51.5)"/><rect x="266" y="57" width="11" height="11" transform="rotate(0,271.5,62.5)"/><rect x="266" y="68" width="11" height="11" transform="rotate(0,271.5,73.5)"/><rect x="266" y="79" width="11" height="11" transform="rotate(0,271.5,84.5)"/><path d="M 266 90v 11h 5.5a 5.5 5.5, 0, 0, 0, 0 -11" transform="rotate(90,271.5,95.5)"/><path d="M 266 123v 11h 11v -5.5a 5.5 5.5, 0, 0, 0, -5.5 -5.5" transform="rotate(-90,271.5,128.5)"/><rect x="266" y="134" width="11" height="11" transform="rotate(0,271.5,139.5)"/><path d="M 266 145v 11h 11v -5.5a 5.5 5.5, 0, 0, 0, -5.5 -5.5" transform="rotate(180,271.5,150.5)"/><path d="M 266 178v 11h 5.5a 5.5 5.5, 0, 0, 0, 0 -11" transform="rotate(180,271.5,183.5)"/><path d="M 266 200v 11h 11v -5.5a 5.5 5.5, 0, 0, 0, -5.5 -5.5" transform="rotate(0,271.5,205.5)"/><path d="M 266 211v 11h 11v -5.5a 5.5 5.5, 0, 0, 0, -5.5 -5.5" transform="rotate(180,271.5,216.5)"/><path d="M 266 244v 11h 5.5a 5.5 5.5, 0, 0, 0, 0 -11" transform="rotate(0,271.5,249.5)"/><path d="M 266 266v 11h 5.5a 5.5 5.5, 0, 0, 0, 0 -11" transform="rotate(180,271.5,271.5)"/><circle cx="271.5" cy="293.5" r="5.5" transform="rotate(0,271.5,293.5)"/><rect x="266" y="321" width="11" height="11" transform="rotate(0,271.5,326.5)"/><path d="M 266 332v 11h 11v -5.5a 5.5 5.5, 0, 0, 0, -5.5 -5.5" transform="rotate(90,271.5,337.5)"/><rect x="266" y="354" width="11" height="11" transform="rotate(0,271.5,359.5)"/><path d="M 266 376v 11h 5.5a 5.5 5.5, 0, 0, 0, 0 -11" transform="rotate(0,271.5,381.5)"/><rect x="266" y="398" width="11" height="11" transform="rotate(0,271.5,403.5)"/><rect x="266" y="431" width="11" height="11" transform="rotate(0,271.5,436.5)"/><path d="M 266 442v 11h 11v -5.5a 5.5 5.5, 0, 0, 0, -5.5 -5.5" transform="rotate(90,271.5,447.5)"/><rect x="277" y="68" width="11" height="11" transform="rotate(0,282.5,73.5)"/><path d="M 277 101v 11h 11v -5.5a 5.5 5.5, 0, 0, 0, -5.5 -5.5" transform="rotate(-90,282.5,106.5)"/><rect x="277" y="112" width="11" height="11" transform="rotate(0,282.5,117.5)"/><path d="M 277 123v 11h 11v -5.5a 5.5 5.5, 0, 0, 0, -5.5 -5.5" transform="rotate(90,282.5,128.5)"/><path d="M 277 145v 11h 11v -5.5a 5.5 5.5, 0, 0, 0, -5.5 -5.5" transform="rotate(0,282.5,150.5)"/><rect x="277" y="156" width="11" height="11" transform="rotate(0,282.5,161.5)"/><rect x="277" y="167" width="11" height="11" transform="rotate(0,282.5,172.5)"/><path d="M 277 178v 11h 11v -5.5a 5.5 5.5, 0, 0, 0, -5.5 -5.5" transform="rotate(90,282.5,183.5)"/><path d="M 277 211v 11h 11v -5.5a 5.5 5.5, 0, 0, 0, -5.5 -5.5" transform="rotate(0,282.5,216.5)"/><path d="M 277 222v 11h 11v -5.5a 5.5 5.5, 0, 0, 0, -5.5 -5.5" transform="rotate(180,282.5,227.5)"/><path d="M 277 266v 11h 5.5a 5.5 5.5, 0, 0, 0, 0 -11" transform="rotate(0,282.5,271.5)"/><path d="M 277 310v 11h 11v -5.5a 5.5 5.5, 0, 0, 0, -5.5 -5.5" transform="rotate(-90,282.5,315.5)"/><path d="M 277 321v 11h 11v -5.5a 5.5 5.5, 0, 0, 0, -5.5 -5.5" transform="rotate(90,282.5,326.5)"/><path d="M 277 354v 11h 5.5a 5.5 5.5, 0, 0, 0, 0 -11" transform="rotate(0,282.5,359.5)"/><path d="M 277 398v 11h 5.5a 5.5 5.5, 0, 0, 0, 0 -11" transform="rotate(0,282.5,403.5)"/><path d="M 277 420v 11h 5.5a 5.5 5.5, 0, 0, 0, 0 -11" transform="rotate(-90,282.5,425.5)"/><path d="M 277 431v 11h 11v -5.5a 5.5 5.5, 0, 0, 0, -5.5 -5.5" transform="rotate(90,282.5,436.5)"/><path d="M 277 453v 11h 11v -5.5a 5.5 5.5, 0, 0, 0, -5.5 -5.5" transform="rotate(-90,282.5,458.5)"/><path d="M 277 464v 11h 5.5a 5.5 5.5, 0, 0, 0, 0 -11" transform="rotate(90,282.5,469.5)"/><circle cx="293.5" cy="29.5" r="5.5" transform="rotate(0,293.5,29.5)"/><path d="M 288 46v 11h 11v -5.5a 5.5 5.5, 0, 0, 0, -5.5 -5.5" transform="rotate(-90,293.5,51.5)"/><rect x="288" y="57" width="11" height="11" transform="rotate(0,293.5,62.5)"/><path d="M 288 68v 11h 11v -5.5a 5.5 5.5, 0, 0, 0, -5.5 -5.5" transform="rotate(90,293.5,73.5)"/><path d="M 288 90v 11h 5.5a 5.5 5.5, 0, 0, 0, 0 -11" transform="rotate(-90,293.5,95.5)"/><rect x="288" y="101" width="11" height="11" transform="rotate(0,293.5,106.5)"/><rect x="288" y="112" width="11" height="11" transform="rotate(0,293.5,117.5)"/><path d="M 288 189v 11h 11v -5.5a 5.5 5.5, 0, 0, 0, -5.5 -5.5" transform="rotate(-90,293.5,194.5)"/><path d="M 288 200v 11h 5.5a 5.5 5.5, 0, 0, 0, 0 -11" transform="rotate(90,293.5,205.5)"/><rect x="288" y="222" width="11" height="11" transform="rotate(0,293.5,227.5)"/><path d="M 288 255v 11h 5.5a 5.5 5.5, 0, 0, 0, 0 -11" transform="rotate(180,293.5,260.5)"/><path d="M 288 277v 11h 11v -5.5a 5.5 5.5, 0, 0, 0, -5.5 -5.5" transform="rotate(-90,293.5,282.5)"/><rect x="288" y="288" width="11" height="11" transform="rotate(0,293.5,293.5)"/><rect x="288" y="299" width="11" height="11" transform="rotate(0,293.5,304.5)"/><rect x="288" y="310" width="11" height="11" transform="rotate(0,293.5,315.5)"/><path d="M 288 332v 11h 11v -5.5a 5.5 5.5, 0, 0, 0, -5.5 -5.5" transform="rotate(-90,293.5,337.5)"/><path d="M 288 343v 11h 11v -5.5a 5.5 5.5, 0, 0, 0, -5.5 -5.5" transform="rotate(180,293.5,348.5)"/><circle cx="293.5" cy="414.5" r="5.5" transform="rotate(0,293.5,414.5)"/><path d="M 288 442v 11h 5.5a 5.5 5.5, 0, 0, 0, 0 -11" transform="rotate(-90,293.5,447.5)"/><path d="M 288 453v 11h 11v -5.5a 5.5 5.5, 0, 0, 0, -5.5 -5.5" transform="rotate(90,293.5,458.5)"/><path d="M 299 35v 11h 5.5a 5.5 5.5, 0, 0, 0, 0 -11" transform="rotate(-90,304.5,40.5)"/><rect x="299" y="46" width="11" height="11" transform="rotate(0,304.5,51.5)"/><rect x="299" y="101" width="11" height="11" transform="rotate(0,304.5,106.5)"/><rect x="299" y="112" width="11" height="11" transform="rotate(0,304.5,117.5)"/><path d="M 299 123v 11h 5.5a 5.5 5.5, 0, 0, 0, 0 -11" transform="rotate(90,304.5,128.5)"/><path d="M 299 145v 11h 5.5a 5.5 5.5, 0, 0, 0, 0 -11" transform="rotate(180,304.5,150.5)"/><path d="M 299 178v 11h 5.5a 5.5 5.5, 0, 0, 0, 0 -11" transform="rotate(-90,304.5,183.5)"/><rect x="299" y="189" width="11" height="11" transform="rotate(0,304.5,194.5)"/><path d="M 299 222v 11h 5.5a 5.5 5.5, 0, 0, 0, 0 -11" transform="rotate(0,304.5,227.5)"/><rect x="299" y="255" width="11" height="11" transform="rotate(0,304.5,260.5)"/><path d="M 299 277v 11h 5.5a 5.5 5.5, 0, 0, 0, 0 -11" transform="rotate(0,304.5,282.5)"/><path d="M 299 310v 11h 5.5a 5.5 5.5, 0, 0, 0, 0 -11" transform="rotate(0,304.5,315.5)"/><path d="M 299 332v 11h 11v -5.5a 5.5 5.5, 0, 0, 0, -5.5 -5.5" transform="rotate(0,304.5,337.5)"/><rect x="299" y="343" width="11" height="11" transform="rotate(0,304.5,348.5)"/><rect x="299" y="354" width="11" height="11" transform="rotate(0,304.5,359.5)"/><path d="M 299 365v 11h 5.5a 5.5 5.5, 0, 0, 0, 0 -11" transform="rotate(90,304.5,370.5)"/><path d="M 299 387v 11h 5.5a 5.5 5.5, 0, 0, 0, 0 -11" transform="rotate(-90,304.5,392.5)"/><path d="M 299 398v 11h 5.5a 5.5 5.5, 0, 0, 0, 0 -11" transform="rotate(90,304.5,403.5)"/><path d="M 299 420v 11h 5.5a 5.5 5.5, 0, 0, 0, 0 -11" transform="rotate(-90,304.5,425.5)"/><path d="M 299 431v 11h 5.5a 5.5 5.5, 0, 0, 0, 0 -11" transform="rotate(90,304.5,436.5)"/><circle cx="304.5" cy="469.5" r="5.5" transform="rotate(0,304.5,469.5)"/><path d="M 310 46v 11h 5.5a 5.5 5.5, 0, 0, 0, 0 -11" transform="rotate(0,315.5,51.5)"/><path d="M 310 79v 11h 11v -5.5a 5.5 5.5, 0, 0, 0, -5.5 -5.5" transform="rotate(-90,315.5,84.5)"/><rect x="310" y="90" width="11" height="11" transform="rotate(0,315.5,95.5)"/><path d="M 310 101v 11h 11v -5.5a 5.5 5.5, 0, 0, 0, -5.5 -5.5" transform="rotate(90,315.5,106.5)"/><rect x="310" y="145" width="11" height="11" transform="rotate(0,315.5,150.5)"/><path d="M 310 189v 11h 11v -5.5a 5.5 5.5, 0, 0, 0, -5.5 -5.5" transform="rotate(0,315.5,194.5)"/><rect x="310" y="200" width="11" height="11" transform="rotate(0,315.5,205.5)"/><path d="M 310 211v 11h 11v -5.5a 5.5 5.5, 0, 0, 0, -5.5 -5.5" transform="rotate(180,315.5,216.5)"/><path d="M 310 233v 11h 11v -5.5a 5.5 5.5, 0, 0, 0, -5.5 -5.5" transform="rotate(-90,315.5,238.5)"/><rect x="310" y="244" width="11" height="11" transform="rotate(0,315.5,249.5)"/><rect x="310" y="255" width="11" height="11" transform="rotate(0,315.5,260.5)"/><circle cx="315.5" cy="326.5" r="5.5" transform="rotate(0,315.5,326.5)"/><path d="M 310 343v 11h 11v -5.5a 5.5 5.5, 0, 0, 0, -5.5 -5.5" transform="rotate(0,315.5,348.5)"/><path d="M 310 354v 11h 11v -5.5a 5.5 5.5, 0, 0, 0, -5.5 -5.5" transform="rotate(90,315.5,359.5)"/><path d="M 310 376v 11h 5.5a 5.5 5.5, 0, 0, 0, 0 -11" transform="rotate(180,315.5,381.5)"/><path d="M 310 409v 11h 5.5a 5.5 5.5, 0, 0, 0, 0 -11" transform="rotate(180,315.5,414.5)"/><circle cx="326.5" cy="29.5" r="5.5" transform="rotate(0,326.5,29.5)"/><path d="M 321 57v 11h 5.5a 5.5 5.5, 0, 0, 0, 0 -11" transform="rotate(-90,326.5,62.5)"/><rect x="321" y="68" width="11" height="11" transform="rotate(0,326.5,73.5)"/><rect x="321" y="79" width="11" height="11" transform="rotate(0,326.5,84.5)"/><path d="M 321 112v 11h 5.5a 5.5 5.5, 0, 0, 0, 0 -11" transform="rotate(180,326.5,117.5)"/><rect x="321" y="145" width="11" height="11" transform="rotate(0,326.5,150.5)"/><circle cx="326.5" cy="183.5" r="5.5" transform="rotate(0,326.5,183.5)"/><path d="M 321 211v 11h 11v -5.5a 5.5 5.5, 0, 0, 0, -5.5 -5.5" transform="rotate(0,326.5,216.5)"/><rect x="321" y="222" width="11" height="11" transform="rotate(0,326.5,227.5)"/><path d="M 321 233v 11h 11v -5.5a 5.5 5.5, 0, 0, 0, -5.5 -5.5" transform="rotate(90,326.5,238.5)"/><path d="M 321 255v 11h 11v -5.5a 5.5 5.5, 0, 0, 0, -5.5 -5.5" transform="rotate(0,326.5,260.5)"/><rect x="321" y="266" width="11" height="11" transform="rotate(0,326.5,271.5)"/><rect x="321" y="277" width="11" height="11" transform="rotate(0,326.5,282.5)"/><path d="M 321 288v 11h 11v -5.5a 5.5 5.5, 0, 0, 0, -5.5 -5.5" transform="rotate(180,326.5,293.5)"/><path d="M 321 310v 11h 5.5a 5.5 5.5, 0, 0, 0, 0 -11" transform="rotate(180,326.5,315.5)"/><path d="M 321 332v 11h 5.5a 5.5 5.5, 0, 0, 0, 0 -11" transform="rotate(180,326.5,337.5)"/><path d="M 321 365v 11h 11v -5.5a 5.5 5.5, 0, 0, 0, -5.5 -5.5" transform="rotate(-90,326.5,370.5)"/><rect x="321" y="376" width="11" height="11" transform="rotate(0,326.5,381.5)"/><path d="M 321 409v 11h 5.5a 5.5 5.5, 0, 0, 0, 0 -11" transform="rotate(0,326.5,414.5)"/><path d="M 321 431v 11h 5.5a 5.5 5.5, 0, 0, 0, 0 -11" transform="rotate(180,326.5,436.5)"/><path d="M 321 453v 11h 5.5a 5.5 5.5, 0, 0, 0, 0 -11" transform="rotate(180,326.5,458.5)"/><path d="M 332 79v 11h 11v -5.5a 5.5 5.5, 0, 0, 0, -5.5 -5.5" transform="rotate(0,337.5,84.5)"/><rect x="332" y="90" width="11" height="11" transform="rotate(0,337.5,95.5)"/><rect x="332" y="101" width="11" height="11" transform="rotate(0,337.5,106.5)"/><rect x="332" y="112" width="11" height="11" transform="rotate(0,337.5,117.5)"/><path d="M 332 123v 11h 11v -5.5a 5.5 5.5, 0, 0, 0, -5.5 -5.5" transform="rotate(180,337.5,128.5)"/><rect x="332" y="145" width="11" height="11" transform="rotate(0,337.5,150.5)"/><path d="M 332 156v 11h 11v -5.5a 5.5 5.5, 0, 0, 0, -5.5 -5.5" transform="rotate(180,337.5,161.5)"/><circle cx="337.5" cy="205.5" r="5.5" transform="rotate(0,337.5,205.5)"/><circle cx="337.5" cy="249.5" r="5.5" transform="rotate(0,337.5,249.5)"/><path d="M 332 288v 11h 5.5a 5.5 5.5, 0, 0, 0, 0 -11" transform="rotate(0,337.5,293.5)"/><path d="M 332 310v 11h 5.5a 5.5 5.5, 0, 0, 0, 0 -11" transform="rotate(0,337.5,315.5)"/><path d="M 332 332v 11h 11v -5.5a 5.5 5.5, 0, 0, 0, -5.5 -5.5" transform="rotate(0,337.5,337.5)"/><rect x="332" y="343" width="11" height="11" transform="rotate(0,337.5,348.5)"/><rect x="332" y="354" width="11" height="11" transform="rotate(0,337.5,359.5)"/><rect x="332" y="365" width="11" height="11" transform="rotate(0,337.5,370.5)"/><rect x="332" y="376" width="11" height="11" transform="rotate(0,337.5,381.5)"/><rect x="332" y="431" width="11" height="11" transform="rotate(0,337.5,436.5)"/><rect x="332" y="442" width="11" height="11" transform="rotate(0,337.5,447.5)"/><rect x="332" y="453" width="11" height="11" transform="rotate(0,337.5,458.5)"/><path d="M 343 24v 11h 11v -5.5a 5.5 5.5, 0, 0, 0, -5.5 -5.5" transform="rotate(-90,348.5,29.5)"/><rect x="343" y="35" width="11" height="11" transform="rotate(0,348.5,40.5)"/><path d="M 343 46v 11h 5.5a 5.5 5.5, 0, 0, 0, 0 -11" transform="rotate(90,348.5,51.5)"/><path d="M 343 68v 11h 5.5a 5.5 5.5, 0, 0, 0, 0 -11" transform="rotate(180,348.5,73.5)"/><path d="M 343 101v 11h 5.5a 5.5 5.5, 0, 0, 0, 0 -11" transform="rotate(0,348.5,106.5)"/><path d="M 343 123v 11h 11v -5.5a 5.5 5.5, 0, 0, 0, -5.5 -5.5" transform="rotate(0,348.5,128.5)"/><rect x="343" y="134" width="11" height="11" transform="rotate(0,348.5,139.5)"/><rect x="343" y="145" width="11" height="11" transform="rotate(0,348.5,150.5)"/><rect x="343" y="156" width="11" height="11" transform="rotate(0,348.5,161.5)"/><rect x="343" y="167" width="11" height="11" transform="rotate(0,348.5,172.5)"/><path d="M 343 178v 11h 11v -5.5a 5.5 5.5, 0, 0, 0, -5.5 -5.5" transform="rotate(180,348.5,183.5)"/><path d="M 343 211v 11h 5.5a 5.5 5.5, 0, 0, 0, 0 -11" transform="rotate(-90,348.5,216.5)"/><path d="M 343 222v 11h 5.5a 5.5 5.5, 0, 0, 0, 0 -11" transform="rotate(90,348.5,227.5)"/><path d="M 343 255v 11h 5.5a 5.5 5.5, 0, 0, 0, 0 -11" transform="rotate(180,348.5,260.5)"/><path d="M 343 321v 11h 5.5a 5.5 5.5, 0, 0, 0, 0 -11" transform="rotate(180,348.5,326.5)"/><path d="M 343 343v 11h 5.5a 5.5 5.5, 0, 0, 0, 0 -11" transform="rotate(0,348.5,348.5)"/><path d="M 343 365v 11h 11v -5.5a 5.5 5.5, 0, 0, 0, -5.5 -5.5" transform="rotate(0,348.5,370.5)"/><rect x="343" y="376" width="11" height="11" transform="rotate(0,348.5,381.5)"/><rect x="343" y="387" width="11" height="11" transform="rotate(0,348.5,392.5)"/><rect x="343" y="398" width="11" height="11" transform="rotate(0,348.5,403.5)"/><rect x="343" y="409" width="11" height="11" transform="rotate(0,348.5,414.5)"/><rect x="343" y="420" width="11" height="11" transform="rotate(0,348.5,425.5)"/><rect x="343" y="431" width="11" height="11" transform="rotate(0,348.5,436.5)"/><rect x="343" y="442" width="11" height="11" transform="rotate(0,348.5,447.5)"/><path d="M 343 453v 11h 11v -5.5a 5.5 5.5, 0, 0, 0, -5.5 -5.5" transform="rotate(90,348.5,458.5)"/><rect x="354" y="24" width="11" height="11" transform="rotate(0,359.5,29.5)"/><path d="M 354 57v 11h 5.5a 5.5 5.5, 0, 0, 0, 0 -11" transform="rotate(-90,359.5,62.5)"/><rect x="354" y="68" width="11" height="11" transform="rotate(0,359.5,73.5)"/><rect x="354" y="79" width="11" height="11" transform="rotate(0,359.5,84.5)"/><path d="M 354 90v 11h 5.5a 5.5 5.5, 0, 0, 0, 0 -11" transform="rotate(90,359.5,95.5)"/><path d="M 354 112v 11h 5.5a 5.5 5.5, 0, 0, 0, 0 -11" transform="rotate(180,359.5,117.5)"/><path d="M 354 134v 11h 11v -5.5a 5.5 5.5, 0, 0, 0, -5.5 -5.5" transform="rotate(0,359.5,139.5)"/><path d="M 354 145v 11h 11v -5.5a 5.5 5.5, 0, 0, 0, -5.5 -5.5" transform="rotate(90,359.5,150.5)"/><rect x="354" y="178" width="11" height="11" transform="rotate(0,359.5,183.5)"/><rect x="354" y="189" width="11" height="11" transform="rotate(0,359.5,194.5)"/><path d="M 354 200v 11h 5.5a 5.5 5.5, 0, 0, 0, 0 -11" transform="rotate(90,359.5,205.5)"/><path d="M 354 233v 11h 5.5a 5.5 5.5, 0, 0, 0, 0 -11" transform="rotate(180,359.5,238.5)"/><rect x="354" y="255" width="11" height="11" transform="rotate(0,359.5,260.5)"/><path d="M 354 277v 11h 11v -5.5a 5.5 5.5, 0, 0, 0, -5.5 -5.5" transform="rotate(-90,359.5,282.5)"/><path d="M 354 288v 11h 5.5a 5.5 5.5, 0, 0, 0, 0 -11" transform="rotate(90,359.5,293.5)"/><rect x="354" y="321" width="11" height="11" transform="rotate(0,359.5,326.5)"/><path d="M 354 332v 11h 5.5a 5.5 5.5, 0, 0, 0, 0 -11" transform="rotate(90,359.5,337.5)"/><rect x="354" y="387" width="11" height="11" transform="rotate(0,359.5,392.5)"/><rect x="354" y="398" width="11" height="11" transform="rotate(0,359.5,403.5)"/><path d="M 354 409v 11h 11v -5.5a 5.5 5.5, 0, 0, 0, -5.5 -5.5" transform="rotate(90,359.5,414.5)"/><path d="M 354 442v 11h 5.5a 5.5 5.5, 0, 0, 0, 0 -11" transform="rotate(0,359.5,447.5)"/><rect x="365" y="24" width="11" height="11" transform="rotate(0,370.5,29.5)"/><path d="M 365 101v 11h 11v -5.5a 5.5 5.5, 0, 0, 0, -5.5 -5.5" transform="rotate(-90,370.5,106.5)"/><path d="M 365 112v 11h 11v -5.5a 5.5 5.5, 0, 0, 0, -5.5 -5.5" transform="rotate(90,370.5,117.5)"/><rect x="365" y="178" width="11" height="11" transform="rotate(0,370.5,183.5)"/><path d="M 365 189v 11h 11v -5.5a 5.5 5.5, 0, 0, 0, -5.5 -5.5" transform="rotate(90,370.5,194.5)"/><path d="M 365 233v 11h 11v -5.5a 5.5 5.5, 0, 0, 0, -5.5 -5.5" transform="rotate(0,370.5,238.5)"/><rect x="365" y="244" width="11" height="11" transform="rotate(0,370.5,249.5)"/><path d="M 365 255v 11h 11v -5.5a 5.5 5.5, 0, 0, 0, -5.5 -5.5" transform="rotate(90,370.5,260.5)"/><rect x="365" y="277" width="11" height="11" transform="rotate(0,370.5,282.5)"/><path d="M 365 310v 11h 5.5a 5.5 5.5, 0, 0, 0, 0 -11" transform="rotate(-90,370.5,315.5)"/><rect x="365" y="321" width="11" height="11" transform="rotate(0,370.5,326.5)"/><path d="M 365 354v 11h 5.5a 5.5 5.5, 0, 0, 0, 0 -11" transform="rotate(-90,370.5,359.5)"/><rect x="365" y="365" width="11" height="11" transform="rotate(0,370.5,370.5)"/><rect x="365" y="376" width="11" height="11" transform="rotate(0,370.5,381.5)"/><rect x="365" y="387" width="11" height="11" transform="rotate(0,370.5,392.5)"/><rect x="365" y="398" width="11" height="11" transform="rotate(0,370.5,403.5)"/><path d="M 365 420v 11h 11v -5.5a 5.5 5.5, 0, 0, 0, -5.5 -5.5" transform="rotate(-90,370.5,425.5)"/><path d="M 365 431v 11h 5.5a 5.5 5.5, 0, 0, 0, 0 -11" transform="rotate(90,370.5,436.5)"/><circle cx="370.5" cy="458.5" r="5.5" transform="rotate(0,370.5,458.5)"/><path d="M 376 24v 11h 5.5a 5.5 5.5, 0, 0, 0, 0 -11" transform="rotate(0,381.5,29.5)"/><circle cx="381.5" cy="73.5" r="5.5" transform="rotate(0,381.5,73.5)"/><path d="M 376 90v 11h 5.5a 5.5 5.5, 0, 0, 0, 0 -11" transform="rotate(-90,381.5,95.5)"/><path d="M 376 101v 11h 11v -5.5a 5.5 5.5, 0, 0, 0, -5.5 -5.5" transform="rotate(90,381.5,106.5)"/><path d="M 376 123v 11h 11v -5.5a 5.5 5.5, 0, 0, 0, -5.5 -5.5" transform="rotate(-90,381.5,128.5)"/><path d="M 376 134v 11h 5.5a 5.5 5.5, 0, 0, 0, 0 -11" transform="rotate(90,381.5,139.5)"/><path d="M 376 167v 11h 5.5a 5.5 5.5, 0, 0, 0, 0 -11" transform="rotate(-90,381.5,172.5)"/><rect x="376" y="178" width="11" height="11" transform="rotate(0,381.5,183.5)"/><path d="M 376 200v 11h 11v -5.5a 5.5 5.5, 0, 0, 0, -5.5 -5.5" transform="rotate(-90,381.5,205.5)"/><path d="M 376 211v 11h 11v -5.5a 5.5 5.5, 0, 0, 0, -5.5 -5.5" transform="rotate(180,381.5,216.5)"/><rect x="376" y="244" width="11" height="11" transform="rotate(0,381.5,249.5)"/><rect x="376" y="277" width="11" height="11" transform="rotate(0,381.5,282.5)"/><rect x="376" y="288" width="11" height="11" transform="rotate(0,381.5,293.5)"/><path d="M 376 299v 11h 5.5a 5.5 5.5, 0, 0, 0, 0 -11" transform="rotate(90,381.5,304.5)"/><path d="M 376 321v 11h 5.5a 5.5 5.5, 0, 0, 0, 0 -11" transform="rotate(0,381.5,326.5)"/><path d="M 376 343v 11h 5.5a 5.5 5.5, 0, 0, 0, 0 -11" transform="rotate(180,381.5,348.5)"/><rect x="376" y="365" width="11" height="11" transform="rotate(0,381.5,370.5)"/><rect x="376" y="376" width="11" height="11" transform="rotate(0,381.5,381.5)"/><rect x="376" y="387" width="11" height="11" transform="rotate(0,381.5,392.5)"/><rect x="376" y="398" width="11" height="11" transform="rotate(0,381.5,403.5)"/><rect x="376" y="409" width="11" height="11" transform="rotate(0,381.5,414.5)"/><rect x="376" y="420" width="11" height="11" transform="rotate(0,381.5,425.5)"/><circle cx="381.5" cy="447.5" r="5.5" transform="rotate(0,381.5,447.5)"/><path d="M 387 112v 11h 11v -5.5a 5.5 5.5, 0, 0, 0, -5.5 -5.5" transform="rotate(-90,392.5,117.5)"/><path d="M 387 123v 11h 11v -5.5a 5.5 5.5, 0, 0, 0, -5.5 -5.5" transform="rotate(90,392.5,128.5)"/><circle cx="392.5" cy="161.5" r="5.5" transform="rotate(0,392.5,161.5)"/><rect x="387" y="178" width="11" height="11" transform="rotate(0,392.5,183.5)"/><rect x="387" y="189" width="11" height="11" transform="rotate(0,392.5,194.5)"/><rect x="387" y="200" width="11" height="11" transform="rotate(0,392.5,205.5)"/><rect x="387" y="211" width="11" height="11" transform="rotate(0,392.5,216.5)"/><path d="M 387 244v 11h 5.5a 5.5 5.5, 0, 0, 0, 0 -11" transform="rotate(0,392.5,249.5)"/><path d="M 387 266v 11h 5.5a 5.5 5.5, 0, 0, 0, 0 -11" transform="rotate(-90,392.5,271.5)"/><path d="M 387 277v 11h 11v -5.5a 5.5 5.5, 0, 0, 0, -5.5 -5.5" transform="rotate(90,392.5,282.5)"/><path d="M 387 332v 11h 11v -5.5a 5.5 5.5, 0, 0, 0, -5.5 -5.5" transform="rotate(-90,392.5,337.5)"/><rect x="387" y="343" width="11" height="11" transform="rotate(0,392.5,348.5)"/><rect x="387" y="354" width="11" height="11" transform="rotate(0,392.5,359.5)"/><rect x="387" y="365" width="11" height="11" transform="rotate(0,392.5,370.5)"/><rect x="387" y="376" width="11" height="11" transform="rotate(0,392.5,381.5)"/><rect x="387" y="420" width="11" height="11" transform="rotate(0,392.5,425.5)"/><path d="M 387 431v 11h 11v -5.5a 5.5 5.5, 0, 0, 0, -5.5 -5.5" transform="rotate(180,392.5,436.5)"/><circle cx="392.5" cy="469.5" r="5.5" transform="rotate(0,392.5,469.5)"/><rect x="398" y="112" width="11" height="11" transform="rotate(0,403.5,117.5)"/><path d="M 398 134v 11h 11v -5.5a 5.5 5.5, 0, 0, 0, -5.5 -5.5" transform="rotate(-90,403.5,139.5)"/><path d="M 398 145v 11h 11v -5.5a 5.5 5.5, 0, 0, 0, -5.5 -5.5" transform="rotate(180,403.5,150.5)"/><path d="M 398 178v 11h 5.5a 5.5 5.5, 0, 0, 0, 0 -11" transform="rotate(0,403.5,183.5)"/><path d="M 398 200v 11h 11v -5.5a 5.5 5.5, 0, 0, 0, -5.5 -5.5" transform="rotate(0,403.5,205.5)"/><path d="M 398 211v 11h 11v -5.5a 5.5 5.5, 0, 0, 0, -5.5 -5.5" transform="rotate(90,403.5,216.5)"/><path d="M 398 233v 11h 5.5a 5.5 5.5, 0, 0, 0, 0 -11" transform="rotate(180,403.5,238.5)"/><circle cx="403.5" cy="260.5" r="5.5" transform="rotate(0,403.5,260.5)"/><circle cx="403.5" cy="293.5" r="5.5" transform="rotate(0,403.5,293.5)"/><path d="M 398 321v 11h 5.5a 5.5 5.5, 0, 0, 0, 0 -11" transform="rotate(-90,403.5,326.5)"/><rect x="398" y="332" width="11" height="11" transform="rotate(0,403.5,337.5)"/><rect x="398" y="343" width="11" height="11" transform="rotate(0,403.5,348.5)"/><rect x="398" y="365" width="11" height="11" transform="rotate(0,403.5,370.5)"/><rect x="398" y="376" width="11" height="11" transform="rotate(0,403.5,381.5)"/><circle cx="403.5" cy="403.5" r="5.5" transform="rotate(0,403.5,403.5)"/><rect x="398" y="420" width="11" height="11" transform="rotate(0,403.5,425.5)"/><rect x="398" y="431" width="11" height="11" transform="rotate(0,403.5,436.5)"/><path d="M 398 442v 11h 5.5a 5.5 5.5, 0, 0, 0, 0 -11" transform="rotate(90,403.5,447.5)"/><rect x="409" y="112" width="11" height="11" transform="rotate(0,414.5,117.5)"/><path d="M 409 134v 11h 11v -5.5a 5.5 5.5, 0, 0, 0, -5.5 -5.5" transform="rotate(0,414.5,139.5)"/><rect x="409" y="145" width="11" height="11" transform="rotate(0,414.5,150.5)"/><path d="M 409 156v 11h 11v -5.5a 5.5 5.5, 0, 0, 0, -5.5 -5.5" transform="rotate(180,414.5,161.5)"/><path d="M 409 222v 11h 5.5a 5.5 5.5, 0, 0, 0, 0 -11" transform="rotate(-90,414.5,227.5)"/><rect x="409" y="233" width="11" height="11" transform="rotate(0,414.5,238.5)"/><path d="M 409 244v 11h 5.5a 5.5 5.5, 0, 0, 0, 0 -11" transform="rotate(90,414.5,249.5)"/><circle cx="414.5" cy="282.5" r="5.5" transform="rotate(0,414.5,282.5)"/><circle cx="414.5" cy="315.5" r="5.5" transform="rotate(0,414.5,315.5)"/><rect x="409" y="332" width="11" height="11" transform="rotate(0,414.5,337.5)"/><rect x="409" y="343" width="11" height="11" transform="rotate(0,414.5,348.5)"/><rect x="409" y="354" width="11" height="11" transform="rotate(0,414.5,359.5)"/><rect x="409" y="365" width="11" height="11" transform="rotate(0,414.5,370.5)"/><rect x="409" y="376" width="11" height="11" transform="rotate(0,414.5,381.5)"/><rect x="409" y="420" width="11" height="11" transform="rotate(0,414.5,425.5)"/><path d="M 409 431v 11h 11v -5.5a 5.5 5.5, 0, 0, 0, -5.5 -5.5" transform="rotate(90,414.5,436.5)"/><rect x="420" y="112" width="11" height="11" transform="rotate(0,425.5,117.5)"/><path d="M 420 123v 11h 11v -5.5a 5.5 5.5, 0, 0, 0, -5.5 -5.5" transform="rotate(180,425.5,128.5)"/><rect x="420" y="145" width="11" height="11" transform="rotate(0,425.5,150.5)"/><rect x="420" y="156" width="11" height="11" transform="rotate(0,425.5,161.5)"/><rect x="420" y="167" width="11" height="11" transform="rotate(0,425.5,172.5)"/><path d="M 420 178v 11h 5.5a 5.5 5.5, 0, 0, 0, 0 -11" transform="rotate(90,425.5,183.5)"/><circle cx="425.5" cy="293.5" r="5.5" transform="rotate(0,425.5,293.5)"/><rect x="420" y="332" width="11" height="11" transform="rotate(0,425.5,337.5)"/><path d="M 420 376v 11h 11v -5.5a 5.5 5.5, 0, 0, 0, -5.5 -5.5" transform="rotate(0,425.5,381.5)"/><rect x="420" y="387" width="11" height="11" transform="rotate(0,425.5,392.5)"/><rect x="420" y="398" width="11" height="11" transform="rotate(0,425.5,403.5)"/><rect x="420" y="409" width="11" height="11" transform="rotate(0,425.5,414.5)"/><path d="M 420 420v 11h 11v -5.5a 5.5 5.5, 0, 0, 0, -5.5 -5.5" transform="rotate(90,425.5,425.5)"/><path d="M 420 453v 11h 5.5a 5.5 5.5, 0, 0, 0, 0 -11" transform="rotate(180,425.5,458.5)"/><rect x="431" y="112" width="11" height="11" transform="rotate(0,436.5,117.5)"/><rect x="431" y="123" width="11" height="11" transform="rotate(0,436.5,128.5)"/><path d="M 431 145v 11h 11v -5.5a 5.5 5.5, 0, 0, 0, -5.5 -5.5" transform="rotate(0,436.5,150.5)"/><rect x="431" y="156" width="11" height="11" transform="rotate(0,436.5,161.5)"/><path d="M 431 222v 11h 11v -5.5a 5.5 5.5, 0, 0, 0, -5.5 -5.5" transform="rotate(-90,436.5,227.5)"/><path d="M 431 233v 11h 11v -5.5a 5.5 5.5, 0, 0, 0, -5.5 -5.5" transform="rotate(180,436.5,238.5)"/><path d="M 431 310v 11h 11v -5.5a 5.5 5.5, 0, 0, 0, -5.5 -5.5" transform="rotate(-90,436.5,315.5)"/><rect x="431" y="321" width="11" height="11" transform="rotate(0,436.5,326.5)"/><rect x="431" y="332" width="11" height="11" transform="rotate(0,436.5,337.5)"/><rect x="431" y="343" width="11" height="11" transform="rotate(0,436.5,348.5)"/><rect x="431" y="354" width="11" height="11" transform="rotate(0,436.5,359.5)"/><path d="M 431 365v 11h 5.5a 5.5 5.5, 0, 0, 0, 0 -11" transform="rotate(90,436.5,370.5)"/><rect x="431" y="387" width="11" height="11" transform="rotate(0,436.5,392.5)"/><rect x="431" y="409" width="11" height="11" transform="rotate(0,436.5,414.5)"/><path d="M 431 453v 11h 5.5a 5.5 5.5, 0, 0, 0, 0 -11" transform="rotate(0,436.5,458.5)"/><rect x="442" y="112" width="11" height="11" transform="rotate(0,447.5,117.5)"/><rect x="442" y="123" width="11" height="11" transform="rotate(0,447.5,128.5)"/><path d="M 442 156v 11h 11v -5.5a 5.5 5.5, 0, 0, 0, -5.5 -5.5" transform="rotate(0,447.5,161.5)"/><rect x="442" y="167" width="11" height="11" transform="rotate(0,447.5,172.5)"/><rect x="442" y="178" width="11" height="11" transform="rotate(0,447.5,183.5)"/><rect x="442" y="189" width="11" height="11" transform="rotate(0,447.5,194.5)"/><path d="M 442 200v 11h 5.5a 5.5 5.5, 0, 0, 0, 0 -11" transform="rotate(90,447.5,205.5)"/><rect x="442" y="222" width="11" height="11" transform="rotate(0,447.5,227.5)"/><rect x="442" y="233" width="11" height="11" transform="rotate(0,447.5,238.5)"/><path d="M 442 244v 11h 5.5a 5.5 5.5, 0, 0, 0, 0 -11" transform="rotate(90,447.5,249.5)"/><circle cx="447.5" cy="271.5" r="5.5" transform="rotate(0,447.5,271.5)"/><path d="M 442 310v 11h 11v -5.5a 5.5 5.5, 0, 0, 0, -5.5 -5.5" transform="rotate(0,447.5,315.5)"/><rect x="442" y="321" width="11" height="11" transform="rotate(0,447.5,326.5)"/><path d="M 442 332v 11h 11v -5.5a 5.5 5.5, 0, 0, 0, -5.5 -5.5" transform="rotate(90,447.5,337.5)"/><path d="M 442 354v 11h 5.5a 5.5 5.5, 0, 0, 0, 0 -11" transform="rotate(0,447.5,359.5)"/><path d="M 442 387v 11h 11v -5.5a 5.5 5.5, 0, 0, 0, -5.5 -5.5" transform="rotate(0,447.5,392.5)"/><rect x="442" y="398" width="11" height="11" transform="rotate(0,447.5,403.5)"/><rect x="442" y="409" width="11" height="11" transform="rotate(0,447.5,414.5)"/><rect x="442" y="420" width="11" height="11" transform="rotate(0,447.5,425.5)"/><path d="M 442 431v 11h 11v -5.5a 5.5 5.5, 0, 0, 0, -5.5 -5.5" transform="rotate(180,447.5,436.5)"/><path d="M 453 112v 11h 11v -5.5a 5.5 5.5, 0, 0, 0, -5.5 -5.5" transform="rotate(0,458.5,117.5)"/><rect x="453" y="123" width="11" height="11" transform="rotate(0,458.5,128.5)"/><rect x="453" y="134" width="11" height="11" transform="rotate(0,458.5,139.5)"/><path d="M 453 145v 11h 11v -5.5a 5.5 5.5, 0, 0, 0, -5.5 -5.5" transform="rotate(180,458.5,150.5)"/><rect x="453" y="167" width="11" height="11" transform="rotate(0,458.5,172.5)"/><path d="M 453 222v 11h 5.5a 5.5 5.5, 0, 0, 0, 0 -11" transform="rotate(0,458.5,227.5)"/><path d="M 453 255v 11h 5.5a 5.5 5.5, 0, 0, 0, 0 -11" transform="rotate(180,458.5,260.5)"/><circle cx="458.5" cy="293.5" r="5.5" transform="rotate(0,458.5,293.5)"/><path d="M 453 365v 11h 11v -5.5a 5.5 5.5, 0, 0, 0, -5.5 -5.5" transform="rotate(-90,458.5,370.5)"/><path d="M 453 376v 11h 5.5a 5.5 5.5, 0, 0, 0, 0 -11" transform="rotate(90,458.5,381.5)"/><rect x="453" y="398" width="11" height="11" transform="rotate(0,458.5,403.5)"/><rect x="453" y="420" width="11" height="11" transform="rotate(0,458.5,425.5)"/><path d="M 453 431v 11h 11v -5.5a 5.5 5.5, 0, 0, 0, -5.5 -5.5" transform="rotate(90,458.5,436.5)"/><circle cx="458.5" cy="458.5" r="5.5" transform="rotate(0,458.5,458.5)"/><path d="M 464 123v 11h 5.5a 5.5 5.5, 0, 0, 0, 0 -11" transform="rotate(0,469.5,128.5)"/><path d="M 464 145v 11h 5.5a 5.5 5.5, 0, 0, 0, 0 -11" transform="rotate(0,469.5,150.5)"/><path d="M 464 167v 11h 5.5a 5.5 5.5, 0, 0, 0, 0 -11" transform="rotate(0,469.5,172.5)"/><path d="M 464 200v 11h 5.5a 5.5 5.5, 0, 0, 0, 0 -11" transform="rotate(-90,469.5,205.5)"/><path d="M 464 211v 11h 5.5a 5.5 5.5, 0, 0, 0, 0 -11" transform="rotate(90,469.5,216.5)"/><path d="M 464 244v 11h 5.5a 5.5 5.5, 0, 0, 0, 0 -11" transform="rotate(-90,469.5,249.5)"/><rect x="464" y="255" width="11" height="11" transform="rotate(0,469.5,260.5)"/><path d="M 464 266v 11h 5.5a 5.5 5.5, 0, 0, 0, 0 -11" transform="rotate(90,469.5,271.5)"/><path d="M 464 299v 11h 5.5a 5.5 5.5, 0, 0, 0, 0 -11" transform="rotate(-90,469.5,304.5)"/><rect x="464" y="310" width="11" height="11" transform="rotate(0,469.5,315.5)"/><path d="M 464 321v 11h 5.5a 5.5 5.5, 0, 0, 0, 0 -11" transform="rotate(90,469.5,326.5)"/><path d="M 464 343v 11h 5.5a 5.5 5.5, 0, 0, 0, 0 -11" transform="rotate(-90,469.5,348.5)"/><rect x="464" y="354" width="11" height="11" transform="rotate(0,469.5,359.5)"/><path d="M 464 365v 11h 11v -5.5a 5.5 5.5, 0, 0, 0, -5.5 -5.5" transform="rotate(90,469.5,370.5)"/><path d="M 464 398v 11h 11v -5.5a 5.5 5.5, 0, 0, 0, -5.5 -5.5" transform="rotate(0,469.5,403.5)"/><rect x="464" y="409" width="11" height="11" transform="rotate(0,469.5,414.5)"/><path d="M 464 420v 11h 11v -5.5a 5.5 5.5, 0, 0, 0, -5.5 -5.5" transform="rotate(90,469.5,425.5)"/><circle cx="469.5" cy="447.5" r="5.5" transform="rotate(0,469.5,447.5)"/><path clip-rule="evenodd" d="M 62.5 24a 38.5 38.5 0 1 0 0.1 0zm 0 11a 27.5 27.5 0 1 1 -0.1 0Z" transform="rotate(0,62.5,62.5)"/><circle cx="62.5" cy="62.5" r="16.5" transform="rotate(0,62.5,62.5)"/><path clip-rule="evenodd" d="M 436.5 24a 38.5 38.5 0 1 0 0.1 0zm 0 11a 27.5 27.5 0 1 1 -0.1 0Z" transform="rotate(90,436.5,62.5)"/><circle cx="436.5" cy="62.5" r="16.5" transform="rotate(90,436.5,62.5)"/><path clip-rule="evenodd" d="M 62.5 398a 38.5 38.5 0 1 0 0.1 0zm 0 11a 27.5 27.5 0 1 1 -0.1 0Z" transform="rotate(-90,62.5,436.5)"/><circle cx="62.5" cy="436.5" r="16.5" transform="rotate(-90,62.5,436.5)"/></clipPath></defs><rect x="0" y="0" height="500" width="500" clip-path="url('#clip-path-background-color')" fill="#fff"/><rect x="0" y="0" height="500" width="500" clip-path="url('#clip-path-dot-color')" fill="#000000"/></svg>